<?xml version="1.0" encoding="iso-8859-1"?>
<!-- Generator: Adobe Illustrator 19.0.0, SVG Export Plug-In . SVG Version: 6.00 Build 0)  -->
<svg version="1.1" id="Capa_1" xmlns="http://www.w3.org/2000/svg" xmlns:xlink="http://www.w3.org/1999/xlink" x="0px" y="0px"
	 viewBox="0 0 512 512" style="enable-background:new 0 0 512 512;" xml:space="preserve">
<path style="fill:#FEDB41;" d="M387.4,60c-18.3,0-32.999,14.399-33.6,32.699l-0.3-0.3V63.6c0-18.6-15-33.6-33.9-33.6
	C301,30,286,45,286,63.6v-30c0-11.7-6-22.2-15-28.2C265.6,2.1,259.3,0,252.4,0c-18.9,0-33.9,15-33.9,33.6c0-18.6-15-33.6-33.9-33.6
	C166,0,151,15,151,33.6v21.599L106,116.4c-10.499,20.999-10.499,46.199-0.901,65.099L151,300l30,30h195
	c6.899,0,12.9-4.801,14.399-11.4l30-120C421,197.399,421,196.199,421,195V93.6C421,75,406,60,387.4,60z"/>
<path style="fill:#D9D9D9;" d="M376,391H166c-8.401,0-15,6.599-15,15v91c0,8.399,6.599,15,15,15h210c8.401,0,15-6.601,15-15v-91
	C391,397.599,384.401,391,376,391z"/>
<path style="fill:#C8C6CD;" d="M391,406v91c0,8.399-6.599,15-15,15H271V391h105C384.401,391,391,397.599,391,406z"/>
<path style="fill:#FCBF29;" d="M421,93.6V195c0,1.199,0,2.399-0.601,3.6l-30,120c-1.5,6.599-7.5,11.4-14.399,11.4H271V5.4
	c9,6,15,16.5,15,28.2v30C286,45,301,30,319.6,30c18.9,0,33.9,15,33.9,33.6v28.799l0.3,0.3C354.401,74.399,369.1,60,387.4,60
	C406,60,421,75,421,93.6z"/>
<path style="fill:#19DEC1;" d="M61,150H15c-8.291,0-15-6.709-15-15s6.709-15,15-15h46c8.291,0,15,6.709,15,15S69.291,150,61,150z"/>
<path style="fill:#17CEB4;" d="M497,150h-46c-8.291,0-15-6.709-15-15s6.709-15,15-15h46c8.291,0,15,6.709,15,15S505.291,150,497,150
	z"/>
<path style="fill:#19DEC1;" d="M15.473,232.09c-6.123,0-11.88-3.779-14.092-9.873c-2.842-7.778,1.172-16.392,8.965-19.219
	l42.29-15.396c7.734-2.842,16.392,1.187,19.219,8.965c2.842,7.778-1.172,16.392-8.965,19.219L20.6,231.182
	C18.915,231.797,17.172,232.09,15.473,232.09z"/>
<path style="fill:#17CEB4;" d="M454.237,83.306c-6.123,0-11.88-3.779-14.092-9.873c-2.842-7.778,1.172-16.392,8.965-19.219
	l42.29-15.396c7.764-2.827,16.392,1.172,19.219,8.965c2.842,7.778-1.172,16.392-8.965,19.219l-42.29,15.396
	C457.68,83.013,455.937,83.306,454.237,83.306z"/>
<path style="fill:#19DEC1;" d="M57.763,83.306c-1.699,0-3.442-0.293-5.127-0.908l-42.29-15.396
	c-7.793-2.827-11.807-11.44-8.965-19.219c2.827-7.793,11.47-11.777,19.219-8.965l42.29,15.396
	c7.793,2.827,11.807,11.44,8.965,19.219C69.643,79.526,63.886,83.306,57.763,83.306z"/>
<path style="fill:#17CEB4;" d="M496.527,232.09c-1.699,0-3.442-0.293-5.127-0.908l-42.29-15.396
	c-7.793-2.827-11.807-11.44-8.965-19.219s11.484-11.792,19.219-8.965l42.29,15.396c7.793,2.827,11.807,11.44,8.965,19.219
	C508.407,228.311,502.65,232.09,496.527,232.09z"/>
<path style="fill:#E5E5E5;" d="M376,300H151v121h255c8.284,0,15-6.716,15-15v-61C421,320.147,400.853,300,376,300z"/>
<path style="fill:#D9D9D9;" d="M421,345v61c0,8.399-6.599,15-15,15H271V300h105C400.901,300,421,320.099,421,345z"/>
<g>
</g>
<g>
</g>
<g>
</g>
<g>
</g>
<g>
</g>
<g>
</g>
<g>
</g>
<g>
</g>
<g>
</g>
<g>
</g>
<g>
</g>
<g>
</g>
<g>
</g>
<g>
</g>
<g>
</g>
</svg>
