<?xml version="1.0" encoding="iso-8859-1"?>
<!-- Generator: Adobe Illustrator 19.0.0, SVG Export Plug-In . SVG Version: 6.00 Build 0)  -->
<svg version="1.1" id="Capa_1" xmlns="http://www.w3.org/2000/svg" xmlns:xlink="http://www.w3.org/1999/xlink" x="0px" y="0px"
	 viewBox="0 0 512 512" style="enable-background:new 0 0 512 512;" xml:space="preserve">
<g>
	<path style="fill:#FEA832;" d="M122.89,241H89.11c-8.291,0-15-6.709-15-15s6.709-15,15-15h33.779c8.291,0,15,6.709,15,15
		S131.181,241,122.89,241z"/>
	<path style="fill:#FEA832;" d="M122.89,301H89.11c-8.291,0-15-6.709-15-15s6.709-15,15-15h33.779c8.291,0,15,6.709,15,15
		S131.181,301,122.89,301z"/>
</g>
<path style="fill:#C1001F;" d="M392.89,512h-75V361h105c8.284,0,15,6.716,15,15v91C437.89,491.853,417.742,512,392.89,512z"/>
<path style="fill:#FD4E26;" d="M347.89,335.499V422l-30,30h-148.5l-31.5-30v-86.501c0-8.399,6.599-15,15-15h180
	C341.291,320.499,347.89,327.1,347.89,335.499z"/>
<g>
	<path style="fill:#FD3018;" d="M347.89,335.499V422l-30,30h-75V320.499h90C341.291,320.499,347.89,327.1,347.89,335.499z"/>
	<path style="fill:#FD3018;" d="M392.89,512h-180c-36.301,0-66.599-25.8-73.5-60c-0.899-4.801-1.5-9.901-1.5-15v-15h210v45
		C347.89,491.899,367.989,512,392.89,512z"/>
</g>
<path style="fill:#E61E14;" d="M392.89,512h-150v-90h105v45C347.89,491.899,367.989,512,392.89,512z"/>
<path style="fill:#C1001F;" d="M392.89,0h-75v151h105c8.284,0,15-6.716,15-15V45C437.89,20.147,417.742,0,392.89,0z"/>
<path style="fill:#FD4E26;" d="M347.89,176.501V90l-30-30h-148.5l-31.5,30v86.501c0,8.399,6.599,15,15,15h180
	C341.291,191.501,347.89,184.9,347.89,176.501z"/>
<g>
	<path style="fill:#FD3018;" d="M347.89,176.501V90l-30-30h-75v131.501h90C341.291,191.501,347.89,184.9,347.89,176.501z"/>
	<path style="fill:#FD3018;" d="M392.89,0h-180c-36.301,0-66.599,25.8-73.5,60c-0.899,4.801-1.5,9.901-1.5,15v15h210V45
		C347.89,20.101,367.989,0,392.89,0z"/>
</g>
<path style="fill:#E61E14;" d="M392.89,0h-150v90h105V45C347.89,20.101,367.989,0,392.89,0z"/>
<path style="fill:#FEDB41;" d="M242.89,121c-74.399,0-135,60.599-135,135c0,74.399,60.601,135,135,135s135-60.601,135-135
	C377.89,181.599,317.289,121,242.89,121z"/>
<path style="fill:#FCBF29;" d="M377.89,256c0,74.399-60.601,135-135,135V121C317.289,121,377.89,181.599,377.89,256z"/>
<path style="fill:#FEA832;" d="M242.89,151c-57.9,0-105,47.1-105,105s47.1,105,105,105s105-47.1,105-105S300.789,151,242.89,151z"/>
<path style="fill:#FE9923;" d="M347.89,256c0,57.9-47.1,105-105,105V151C300.789,151,347.89,198.1,347.89,256z"/>
<path style="fill:#FEDB41;" d="M287.89,286c0,19.499-12.599,36-30,42.299V346c0,8.399-6.599,15-15,15s-15-6.601-15-15v-17.701
	c-11.7-4.2-21.301-12.9-26.4-24.901c-3.3-7.5,0.3-16.199,7.8-19.499c7.8-3.3,16.5,0.3,19.799,7.8c2.401,5.7,7.8,9.3,13.801,9.3
	c8.401,0,15-6.601,15-15c0-8.401-6.599-15-15-15c-24.901,0-45-20.101-45-45c0-19.501,12.599-36,30-42.301V166
	c0-8.401,6.599-15,15-15s15,6.599,15,15v17.699c11.7,4.2,21.301,12.9,26.4,24.901c3.3,7.5-0.3,16.199-7.8,19.501
	c-7.8,3.3-16.5-0.3-19.799-7.8c-2.401-5.7-7.8-9.3-13.801-9.3c-8.401,0-15,6.599-15,15c0,8.399,6.599,15,15,15
	C267.79,241,287.89,261.099,287.89,286z"/>
<g>
	<path style="fill:#FCBF29;" d="M287.89,286c0,19.499-12.599,36-30,42.299V346c0,8.399-6.599,15-15,15v-60c8.401,0,15-6.601,15-15
		c0-8.401-6.599-15-15-15v-30C267.79,241,287.89,261.099,287.89,286z"/>
	<path style="fill:#FCBF29;" d="M242.89,211v-60c8.401,0,15,6.599,15,15v17.699c11.7,4.2,21.301,12.9,26.4,24.901
		c3.3,7.5-0.3,16.199-7.8,19.501c-7.8,3.3-16.5-0.3-19.799-7.8C254.29,214.6,248.89,211,242.89,211z"/>
</g>
<g>
</g>
<g>
</g>
<g>
</g>
<g>
</g>
<g>
</g>
<g>
</g>
<g>
</g>
<g>
</g>
<g>
</g>
<g>
</g>
<g>
</g>
<g>
</g>
<g>
</g>
<g>
</g>
<g>
</g>
</svg>
