<?xml version="1.0" encoding="iso-8859-1"?>
<!-- Generator: Adobe Illustrator 19.0.0, SVG Export Plug-In . SVG Version: 6.00 Build 0)  -->
<svg version="1.1" id="Capa_1" xmlns="http://www.w3.org/2000/svg" xmlns:xlink="http://www.w3.org/1999/xlink" x="0px" y="0px"
	 viewBox="0 0 512 512" style="enable-background:new 0 0 512 512;" xml:space="preserve">
<path style="fill:#FD4E26;" d="M512,75v76l-30,30H30L0,151V75c0-24.901,20.099-45,45-45h421C490.901,30,512,50.099,512,75z"/>
<path style="fill:#FD3018;" d="M512,75v76l-30,30H256V30h210C490.901,30,512,50.099,512,75z"/>
<path style="fill:#E5E5E5;" d="M512,151v346c0,8.284-6.716,15-15,15H15c-8.284,0-15-6.716-15-15V151H512z"/>
<path style="fill:#D9D9D9;" d="M512,151v346c0,8.284-6.716,15-15,15H256V151H512z"/>
<g>
	<path style="fill:#787780;" d="M75,90c-8.291,0-15-6.709-15-15V15c0-8.291,6.709-15,15-15s15,6.709,15,15v60
		C90,83.291,83.291,90,75,90z"/>
	<path style="fill:#787780;" d="M166,90c-8.291,0-15-6.709-15-15V15c0-8.291,6.709-15,15-15s15,6.709,15,15v60
		C181,83.291,174.291,90,166,90z"/>
</g>
<g>
	<path style="fill:#57555C;" d="M346,90c-8.291,0-15-6.709-15-15V15c0-8.291,6.709-15,15-15s15,6.709,15,15v60
		C361,83.291,354.291,90,346,90z"/>
	<path style="fill:#57555C;" d="M436,90c-8.291,0-15-6.709-15-15V15c0-8.291,6.709-15,15-15s15,6.709,15,15v60
		C451,83.291,444.291,90,436,90z"/>
</g>
<path style="fill:#787780;" d="M271,15v60c0,8.401-6.599,15-15,15s-15-6.599-15-15V15c0-8.401,6.599-15,15-15S271,6.599,271,15z"/>
<path style="fill:#57555C;" d="M256,90V0c8.401,0,15,6.599,15,15v60C271,83.401,264.401,90,256,90z"/>
<path style="fill:#19DEC1;" d="M256,181c-74.399,0-135,60.599-135,135c0,74.399,60.601,135,135,135s135-60.601,135-135
	C391,241.599,330.399,181,256,181z"/>
<path style="fill:#17CEB4;" d="M391,316c0,74.399-60.601,135-135,135V181C330.399,181,391,241.599,391,316z"/>
<path style="fill:#E5E5E5;" d="M331,316c0,8.399-6.599,15-15,15h-60c-8.401,0-15-6.601-15-15v-60c0-8.401,6.599-15,15-15
	s15,6.599,15,15v45h45C324.401,301,331,307.599,331,316z"/>
<path style="fill:#D9D9D9;" d="M331,316c0,8.399-6.599,15-15,15h-60v-90c8.401,0,15,6.599,15,15v45h45
	C324.401,301,331,307.599,331,316z"/>
<g>
</g>
<g>
</g>
<g>
</g>
<g>
</g>
<g>
</g>
<g>
</g>
<g>
</g>
<g>
</g>
<g>
</g>
<g>
</g>
<g>
</g>
<g>
</g>
<g>
</g>
<g>
</g>
<g>
</g>
</svg>
