<?xml version="1.0" encoding="iso-8859-1"?>
<!-- Generator: Adobe Illustrator 19.0.0, SVG Export Plug-In . SVG Version: 6.00 Build 0)  -->
<svg version="1.1" id="Capa_1" xmlns="http://www.w3.org/2000/svg" xmlns:xlink="http://www.w3.org/1999/xlink" x="0px" y="0px"
	 viewBox="0 0 512 512" style="enable-background:new 0 0 512 512;" xml:space="preserve">
<path style="fill:#FEA832;" d="M188.055,68.5c-1.8-5.4-6.599-9.3-12.299-9.901l-46.5-6.899l-21-43.301
	C105.855,3.3,100.455,0,94.755,0s-10.8,3.3-13.5,8.399L60.555,51.7l-47.8,6.899C7.055,59.2,2.556,63.1,0.756,68.8
	c-1.8,5.4-0.3,11.1,3.6,15.298l34.9,33.001l-8.101,46.5c-0.901,5.4,1.5,11.1,6,14.399c4.799,3.6,10.8,3.9,15.899,1.201l41.7-21.901
	l41.7,21.901c5.099,2.699,11.1,2.399,15.899-1.201c4.501-3.3,6.901-9,6-14.399l-8.101-46.5l33.9-33.001
	C188.355,79.9,189.554,74.2,188.055,68.5z"/>
<path style="fill:#FE9923;" d="M184.154,84.099l-33.9,33.001l8.101,46.5c0.901,5.4-1.5,11.1-6,14.399
	c-4.799,3.6-10.8,3.9-15.899,1.201l-41.7-21.901V0c5.7,0,11.1,3.3,13.5,8.399l21,43.301l46.5,6.899
	c5.7,0.601,10.499,4.501,12.299,9.901C189.554,74.2,188.355,79.9,184.154,84.099z"/>
<path style="fill:#FEA832;" d="M511.381,68.5c-1.8-5.4-6.599-9.3-12.299-9.901l-47.5-6.899l-21-43.301
	c-2.4-5.099-7.8-8.399-13.5-8.399s-10.8,3.3-13.5,8.399l-20.7,43.301l-46.8,6.899c-5.7,0.601-10.199,4.501-11.999,10.201
	c-1.8,5.4-0.3,11.1,3.6,15.298l33.9,33.001l-8.101,46.5c-0.901,5.4,1.5,11.1,6,14.399c4.799,3.6,10.8,3.9,15.899,1.201l41.7-21.901
	l41.7,21.901c5.099,2.699,11.1,2.399,15.899-1.201c4.501-3.3,6.901-9,6-14.399l-8.101-46.5l34.9-33.001
	C511.682,79.9,512.881,74.2,511.381,68.5z"/>
<path style="fill:#FE9923;" d="M507.481,84.099l-34.9,33.001l8.101,46.5c0.901,5.4-1.5,11.1-6,14.399
	c-4.799,3.6-10.8,3.9-15.899,1.201l-41.7-21.901V0c5.7,0,11.1,3.3,13.5,8.399l21,43.301l47.5,6.899
	c5.7,0.601,10.499,4.501,12.299,9.901C512.881,74.2,511.682,79.9,507.481,84.099z"/>
<path style="fill:#FEA832;" d="M349.3,68.5c-1.8-5.4-6.599-9.3-12.299-9.901l-46.5-6.899l-21-43.301C267.1,3.3,261.7,0,256,0
	s-10.8,3.3-13.5,8.399L221.8,51.7L175,58.599C169.3,59.2,164.801,63.1,163.001,68.8c-1.8,5.4-0.3,11.1,3.6,15.298l33.9,33.001
	l-8.101,46.5c-0.901,5.4,1.5,11.1,6,14.399c4.799,3.6,10.8,3.9,15.899,1.201l41.7-21.901l41.7,21.901
	c5.099,2.699,11.1,2.399,15.899-1.201c4.501-3.3,6.901-9,6-14.399l-8.101-46.5l33.9-33.001C349.6,79.9,350.799,74.2,349.3,68.5z"/>
<path style="fill:#FE9923;" d="M345.399,84.099l-33.9,33.001l8.101,46.5c0.901,5.4-1.5,11.1-6,14.399
	c-4.799,3.6-10.8,3.9-15.899,1.201L256,157.299V0c5.7,0,11.1,3.3,13.5,8.399l21,43.301l46.5,6.899c5.7,0.601,10.5,4.501,12.3,9.901
	C350.799,74.2,349.6,79.9,345.399,84.099z"/>
<path style="fill:#FEDB41;" d="M481,304.6c0,46.5,0,45.3,0,91.8c0,7.8-1.199,15.899-3.9,23.699l-27.001,81.7
	c-1.8,6-7.5,10.201-14.099,10.201H226c-6,0-11.7-3.6-13.801-9.3l-46.5-117.4c-10.499-26.1-5.7-55.501,12.599-76.8L211,270.399V154.6
	c0-18.6,15-33.6,33.6-33.6c4.2,0,7.8,0.599,11.4,2.1c13.2,4.499,22.5,16.8,22.5,31.5v90c0-18.6,15-33.6,33.9-33.6
	c18.6,0,33.6,15,33.6,33.6v30c0-18.6,15-33.6,33.6-33.6c18.9,0,33.9,15,33.9,33.6v30c0-18.6,15.3-33.6,33.9-33.6S481,286,481,304.6z
	"/>
<path style="fill:#FCBF29;" d="M481,304.6c0,46.5,0,45.3,0,91.8c0,7.8-1.199,15.899-3.9,23.699l-27.001,81.7
	c-1.8,6-7.5,10.201-14.099,10.201H256V123.1c13.2,4.499,22.5,16.8,22.5,31.5v90c0-18.6,15-33.6,33.9-33.6c18.6,0,33.6,15,33.6,33.6
	v30c0-18.6,15-33.6,33.6-33.6c18.9,0,33.9,15,33.9,33.6v30c0-18.6,15.3-33.6,33.9-33.6S481,286,481,304.6z"/>
<g>
</g>
<g>
</g>
<g>
</g>
<g>
</g>
<g>
</g>
<g>
</g>
<g>
</g>
<g>
</g>
<g>
</g>
<g>
</g>
<g>
</g>
<g>
</g>
<g>
</g>
<g>
</g>
<g>
</g>
</svg>
