<?xml version="1.0" encoding="iso-8859-1"?>
<!-- Generator: Adobe Illustrator 19.0.0, SVG Export Plug-In . SVG Version: 6.00 Build 0)  -->
<svg version="1.1" id="Capa_1" xmlns="http://www.w3.org/2000/svg" xmlns:xlink="http://www.w3.org/1999/xlink" x="0px" y="0px"
	 viewBox="0 0 512 512" style="enable-background:new 0 0 512 512;" xml:space="preserve">
<path style="fill:#E61E14;" d="M507.604,421.759l-64.632-63.646l-106.068,63.632l84.857,85.857c3.973,3.973,9.761,5.34,14.956,3.75
	c5.288-1.597,9.272-5.991,10.356-11.411l8.643-44.228l44.228-8.643c5.42-1.084,9.814-5.068,11.411-10.356
	C512.95,431.412,511.516,425.67,507.604,421.759z"/>
<path style="fill:#FD4E26;" d="M442.972,273.254l-28.857-28.843l-94.789,57.334l81.21,119.999l42.437-42.422
	C472.195,350.084,472.195,302.492,442.972,273.254z"/>
<path style="fill:#C1001F;" d="M368.72,434.898c-11.514,0-23.042-4.38-31.816-13.154c-14.165-14.15-21.973-32.988-21.973-53.027
	s7.808-38.877,21.973-53.027c5.859-5.859,15.352-5.859,21.211,0l42.422,42.422c8.496,8.496,13.184,19.805,13.184,31.816
	c0,12.026-4.688,23.335-13.184,31.831C391.761,430.518,380.248,434.898,368.72,434.898z"/>
<path style="fill:#FD3018;" d="M69.029,358.111L4.396,421.759c-3.911,3.911-5.347,9.653-3.75,14.956
	c1.597,5.288,5.991,9.272,11.411,10.356l44.228,8.643l8.643,44.228c1.084,5.42,5.068,9.814,10.356,11.411
	c5.195,1.59,10.983,0.223,14.956-3.75l84.857-85.857L69.029,358.111z"/>
<g>
	<path style="fill:#FD4E26;" d="M162.676,301.745l-0.626,1.465C163.101,301.635,163.397,301.024,162.676,301.745z"/>
	<path style="fill:#FD4E26;" d="M97.887,244.411L69.03,273.254c-29.224,29.238-29.224,76.83,0,106.068l42.437,42.422l50.585-118.534
		L97.887,244.411z"/>
</g>
<path style="fill:#E61E14;" d="M143.281,434.898c-11.528,0-23.042-4.38-31.816-13.154c-8.496-8.481-13.184-19.79-13.184-31.816
	c0-12.012,4.688-23.32,13.184-31.816l42.422-42.422c5.859-5.859,15.352-5.859,21.211,0c14.165,14.15,21.973,32.988,21.973,53.027
	s-7.808,38.862-21.973,53.027l0,0l0,0C166.323,430.518,154.81,434.898,143.281,434.898z"/>
<path style="fill:#FEDB41;" d="M256.001,0C156.701,0,76.002,81.699,76.002,180.999s80.699,179.999,179.999,179.999
	s179.999-80.699,179.999-179.999S355.3,0,256.001,0z"/>
<path style="fill:#FCBF29;" d="M435.999,180.999c0,99.299-80.699,179.999-179.999,179.999V0C355.3,0,435.999,81.699,435.999,180.999
	z"/>
<path style="fill:#FEA832;" d="M256.001,61c-66.3,0-119.999,53.699-119.999,119.999c0,66.298,53.699,119.999,119.999,119.999
	S376,247.297,376,180.999C376,114.698,322.301,61,256.001,61z"/>
<path style="fill:#FE9923;" d="M376,180.999c0,66.298-53.699,119.999-119.999,119.999V61C322.301,61,376,114.698,376,180.999z"/>
<path style="fill:#FEDB41;" d="M256.001,90.999c-49.501,0-89.999,40.499-89.999,89.999c0,49.499,40.499,89.999,89.999,89.999
	S346,230.497,346,180.999C346,131.498,305.501,90.999,256.001,90.999z"/>
<path style="fill:#FCBF29;" d="M346,180.999c0,49.499-40.499,89.999-89.999,89.999V90.999C305.501,90.999,346,131.498,346,180.999z"
	/>
<path style="fill:#FEA832;" d="M301,225.998c0,8.399-6.599,15-15,15h-60c-8.401,0-15-6.601-15-15c0-8.401,6.599-15,15-15h15v-60h-15
	c-8.401,0-15-6.601-15-15c0-8.401,6.599-15,15-15h60c8.401,0,15,6.599,15,15c0,8.399-6.599,15-15,15h-15v60h15
	C294.401,210.998,301,217.597,301,225.998z"/>
<path style="fill:#FE9923;" d="M301,225.998c0,8.399-6.599,15-15,15h-30V120.999h30c8.401,0,15,6.599,15,15c0,8.399-6.599,15-15,15
	h-15v60h15C294.401,210.998,301,217.597,301,225.998z"/>
<g>
</g>
<g>
</g>
<g>
</g>
<g>
</g>
<g>
</g>
<g>
</g>
<g>
</g>
<g>
</g>
<g>
</g>
<g>
</g>
<g>
</g>
<g>
</g>
<g>
</g>
<g>
</g>
<g>
</g>
</svg>
