<?xml version="1.0" encoding="iso-8859-1"?>
<!-- Generator: Adobe Illustrator 19.0.0, SVG Export Plug-In . SVG Version: 6.00 Build 0)  -->
<svg version="1.1" id="Capa_1" xmlns="http://www.w3.org/2000/svg" xmlns:xlink="http://www.w3.org/1999/xlink" x="0px" y="0px"
	 viewBox="0 0 512 512" style="enable-background:new 0 0 512 512;" xml:space="preserve">
<path style="fill:#787780;" d="M167.613,407.992l-90.657,90.957c-17.702,17.402-46.204,17.402-63.905,0
	c-17.402-17.7-17.402-46.202,0-63.905l90.957-90.657l21.001,9.001l33.602,33.602L167.613,407.992z"/>
<path style="fill:#57555C;" d="M158.61,386.99l9.002,21.002l-90.657,90.957c-17.702,17.402-46.204,17.402-63.905,0l128.758-128.76
	L158.61,386.99z"/>
<path style="fill:#17ACE8;" d="M223.416,352.189l-55.804,55.804l-63.605-63.605l55.804-55.804c5.7-5.7,15.301-5.7,21.002,0
	l42.602,42.602C229.116,336.887,229.116,346.488,223.416,352.189z"/>
<path style="fill:#1689FC;" d="M223.416,331.186c5.7,5.7,5.7,15.301,0,21.001l-55.804,55.804l-31.802-31.802l66.304-66.306
	L223.416,331.186z"/>
<path style="fill:#787780;" d="M454.734,57.266c-76.206-76.506-199.214-76.204-275.422,0c-76.506,76.207-76.204,199.214,0,275.42
	c76.206,76.507,199.214,76.207,275.422,0C531.238,256.482,530.938,133.473,454.734,57.266z"/>
<path style="fill:#57555C;" d="M454.734,332.686c-76.206,76.207-199.214,76.507-275.422,0l275.422-275.42
	C530.938,133.473,531.238,256.482,454.734,332.686z"/>
<path style="fill:#E5E5E5;" d="M433.731,78.269c-30.002-29.702-71.105-48.303-116.708-48.303
	c-90.908,0-165.012,74.104-165.012,165.012c0,45.602,18.601,86.706,48.303,116.708c30.002,29.702,71.105,48.303,116.708,48.303
	c90.908,0,165.012-74.106,165.012-165.012C482.035,149.373,463.433,108.271,433.731,78.269z"/>
<path style="fill:#D9D9D9;" d="M482.035,194.977c0,90.906-74.104,165.012-165.012,165.012c-45.604,0-86.706-18.601-116.708-48.303
	L433.731,78.269C463.433,108.271,482.035,149.373,482.035,194.977z"/>
<path style="fill:#1689FC;" d="M354.826,157.175c-11.701-4.801-24.602-7.201-37.803-7.201c-57.904,0-105.008,47.103-105.008,105.008
	v30.002c0,4.2,1.8,7.801,4.2,10.801c2.999,2.401,6.599,4.2,10.801,4.2h180.013c8.402,0,15.001-6.602,15.001-15.001v-30.002
	C422.03,210.278,394.128,172.176,354.826,157.175z"/>
<path style="fill:#17ACE8;" d="M317.023,59.968c-33.001,0-60.004,27.001-60.004,60.004c0,33.001,27.003,60.004,60.004,60.004
	c6.301,0,12.3-0.901,17.702-2.701c18.899-6,33.602-20.701,39.601-39.603c1.8-5.4,2.701-11.401,2.701-17.7
	C377.027,86.968,350.024,59.968,317.023,59.968z"/>
<path style="fill:#136EF1;" d="M422.03,284.984v-30.002c0-42.116-24.771-78.366-60.504-94.966
	c-7.132,7.917-16.316,13.931-26.802,17.26c-5.402,1.8-11.401,2.701-17.702,2.701v120.009h90.007
	C415.431,299.985,422.03,293.383,422.03,284.984z"/>
<path style="fill:#1689FC;" d="M317.023,59.968v90.007v30.002c6.301,0,12.3-0.901,17.702-2.701
	c10.485-3.329,19.669-9.344,26.802-17.26c5.724-6.353,10.129-13.928,12.8-22.344c1.8-5.4,2.701-11.401,2.701-17.7
	C377.027,86.968,350.024,59.968,317.023,59.968z"/>
<g>
</g>
<g>
</g>
<g>
</g>
<g>
</g>
<g>
</g>
<g>
</g>
<g>
</g>
<g>
</g>
<g>
</g>
<g>
</g>
<g>
</g>
<g>
</g>
<g>
</g>
<g>
</g>
<g>
</g>
</svg>
