<?xml version="1.0" encoding="iso-8859-1"?>
<!-- Generator: Adobe Illustrator 19.0.0, SVG Export Plug-In . SVG Version: 6.00 Build 0)  -->
<svg version="1.1" id="Capa_1" xmlns="http://www.w3.org/2000/svg" xmlns:xlink="http://www.w3.org/1999/xlink" x="0px" y="0px"
	 viewBox="0 0 512 512" style="enable-background:new 0 0 512 512;" xml:space="preserve">
<path style="fill:#1689FC;" d="M106,391C48.1,391,0,439.1,0,497c0,8.399,6.599,15,15,15h181c8.401,0,15-6.601,15-15
	C211,439.1,163.9,391,106,391z"/>
<path style="fill:#136EF1;" d="M211,497c0,8.399-6.599,15-15,15h-90V391C163.9,391,211,439.1,211,497z"/>
<path style="fill:#17ACE8;" d="M106,301c-32.999,0-60,26.999-60,60c0,32.999,27.001,60,60,60s60-27.001,60-60
	C166,327.999,138.999,301,106,301z"/>
<g>
	<path style="fill:#1689FC;" d="M166,361c0,32.999-27.001,60-60,60V301C138.999,301,166,327.999,166,361z"/>
	<path style="fill:#1689FC;" d="M406,391c-57.9,0-105,48.1-105,106c0,8.399,6.599,15,15,15h181c8.401,0,15-6.601,15-15
		C512,439.1,463.9,391,406,391z"/>
</g>
<path style="fill:#136EF1;" d="M512,497c0,8.399-6.599,15-15,15h-91V391C463.9,391,512,439.1,512,497z"/>
<path style="fill:#17ACE8;" d="M406,301c-32.999,0-60,26.999-60,60c0,32.999,27.001,60,60,60s60-27.001,60-60
	C466,327.999,438.999,301,406,301z"/>
<path style="fill:#1689FC;" d="M466,361c0,32.999-27.001,60-60,60V301C438.999,301,466,327.999,466,361z"/>
<path style="fill:#3C3A41;" d="M406,241c-8.291,0-15-6.709-15-15v-90c0-8.276-6.724-15-15-15c-8.291,0-15-6.709-15-15
	s6.709-15,15-15c24.814,0,45,20.186,45,45v90C421,234.291,414.291,241,406,241z"/>
<path style="fill:#1689FC;" d="M256,391c-57.9,0-105,48.1-105,106c0,8.399,6.599,15,15,15h180c8.401,0,15-6.601,15-15
	C361,439.1,313.9,391,256,391z"/>
<path style="fill:#57555C;" d="M256,91c-57.9,0-105,47.1-105,105v30c0,8.401,6.599,15,15,15h180c8.401,0,15-6.599,15-15v-30
	C361,138.1,313.9,91,256,91z"/>
<path style="fill:#3C3A41;" d="M361,196v30c0,8.401-6.599,15-15,15h-90V91C313.9,91,361,138.1,361,196z"/>
<path style="fill:#787780;" d="M256,0c-32.999,0-60,28.001-60,61s27.001,60,60,60s60-27.001,60-60S288.999,0,256,0z"/>
<path style="fill:#57555C;" d="M316,61c0,32.999-27.001,60-60,60V0C288.999,0,316,28.001,316,61z"/>
<path style="fill:#FD3018;" d="M451,241c0,16.5-13.5,30-30,30H91c-16.5,0-30-13.5-30-30s13.5-30,30-30h330
	C437.5,211,451,224.5,451,241z"/>
<path style="fill:#E61E14;" d="M451,241c0,16.5-13.5,30-30,30H256v-60h165C437.5,211,451,224.5,451,241z"/>
<path style="fill:#136EF1;" d="M361,497c0,8.399-6.599,15-15,15h-90V391C313.9,391,361,439.1,361,497z"/>
<path style="fill:#17ACE8;" d="M256,301c-32.999,0-60,26.999-60,60c0,32.999,27.001,60,60,60s60-27.001,60-60
	C316,327.999,288.999,301,256,301z"/>
<path style="fill:#1689FC;" d="M316,361c0,32.999-27.001,60-60,60V301C288.999,301,316,327.999,316,361z"/>
<g>
</g>
<g>
</g>
<g>
</g>
<g>
</g>
<g>
</g>
<g>
</g>
<g>
</g>
<g>
</g>
<g>
</g>
<g>
</g>
<g>
</g>
<g>
</g>
<g>
</g>
<g>
</g>
<g>
</g>
</svg>
