<?xml version="1.0" encoding="iso-8859-1"?>
<!-- Generator: Adobe Illustrator 19.0.0, SVG Export Plug-In . SVG Version: 6.00 Build 0)  -->
<svg version="1.1" id="Capa_1" xmlns="http://www.w3.org/2000/svg" xmlns:xlink="http://www.w3.org/1999/xlink" x="0px" y="0px"
	 viewBox="0 0 512 512" style="enable-background:new 0 0 512 512;" xml:space="preserve">
<path style="fill:#FEA832;" d="M467,391c-24.901,0-45,21.099-45,46v60c0,8.401,6.599,15,15,15h60c8.401,0,15-6.599,15-15v-60
	C512,412.099,491.901,391,467,391z"/>
<path style="fill:#FE9923;" d="M512,437v60c0,8.401-6.599,15-15,15h-30V391C491.901,391,512,412.099,512,437z"/>
<path style="fill:#FEA832;" d="M482,151v195c0,8.401-6.599,15-15,15s-15-6.599-15-15V151c0-8.401,6.599-15,15-15
	S482,142.599,482,151z"/>
<path style="fill:#FE9923;" d="M482,151v195c0,8.401-6.599,15-15,15V136C475.401,136,482,142.599,482,151z"/>
<path style="fill:#1689FC;" d="M512,136c0,5.7-3.3,10.8-8.401,13.5l-120,60H128.401l-120-60C3.3,146.8,0,141.7,0,136
	s3.3-10.8,8.401-13.5l241-121C251.499,0.601,253.599,0,256,0s4.501,0.601,6.599,1.5l241,121C508.7,125.2,512,130.3,512,136z"/>
<path style="fill:#FEDB41;" d="M467,331c-24.901,0-45,20.099-45,45s20.099,45,45,45s45-20.099,45-45S491.901,331,467,331z"/>
<path style="fill:#136EF1;" d="M512,136c0,5.7-3.3,10.8-8.401,13.5l-120,60H256V0c2.401,0,4.501,0.601,6.599,1.5l241,121
	C508.7,125.2,512,130.3,512,136z"/>
<path style="fill:#17ACE8;" d="M392,136v150H120V136c0-42.9,113.5-45,136-45S392,93.1,392,136z"/>
<path style="fill:#1689FC;" d="M392,136v150H256V91C278.5,91,392,93.1,392,136z"/>
<path style="fill:#787780;" d="M256,241c-22.5,0-136,2.1-136,45s113.5,45,136,45s136-2.1,136-45S278.5,241,256,241z"/>
<path style="fill:#57555C;" d="M392,286c0,42.9-113.5,45-136,45v-90C278.5,241,392,243.1,392,286z"/>
<path style="fill:#FCBF29;" d="M512,376c0,24.901-20.099,45-45,45v-90C491.901,331,512,351.099,512,376z"/>
<g>
</g>
<g>
</g>
<g>
</g>
<g>
</g>
<g>
</g>
<g>
</g>
<g>
</g>
<g>
</g>
<g>
</g>
<g>
</g>
<g>
</g>
<g>
</g>
<g>
</g>
<g>
</g>
<g>
</g>
</svg>
