<?xml version="1.0" encoding="iso-8859-1"?>
<!-- Generator: Adobe Illustrator 19.0.0, SVG Export Plug-In . SVG Version: 6.00 Build 0)  -->
<svg version="1.1" id="Capa_1" xmlns="http://www.w3.org/2000/svg" xmlns:xlink="http://www.w3.org/1999/xlink" x="0px" y="0px"
	 viewBox="0 0 512 512" style="enable-background:new 0 0 512 512;" xml:space="preserve">
<path style="fill:#19DEC1;" d="M392,271c-66.301,0-120,53.699-120,120s53.699,121,120,121s120-54.699,120-121S458.301,271,392,271z"
	/>
<path style="fill:#17CEB4;" d="M512,391c0,66.301-53.699,121-120,121V271C458.301,271,512,324.699,512,391z"/>
<path style="fill:#FD4E26;" d="M120,271C53.699,271,0,324.699,0,391s53.699,121,120,121s120-54.699,120-121S186.301,271,120,271z"/>
<path style="fill:#FD3018;" d="M240,391c0,66.301-53.699,121-120,121V271C186.301,271,240,324.699,240,391z"/>
<path style="fill:#1689FC;" d="M392,91c-57.9,0-105,47.1-105,105v30c0,8.401,6.599,15,15,15h180c8.401,0,15-6.599,15-15v-30
	C497,138.1,449.9,91,392,91z"/>
<path style="fill:#136EF1;" d="M497,196v30c0,8.401-6.599,15-15,15h-90V91C449.9,91,497,138.1,497,196z"/>
<path style="fill:#17ACE8;" d="M392,0c-32.999,0-60,28.001-60,61s27.001,60,60,60s60-27.001,60-60S424.999,0,392,0z"/>
<path style="fill:#1689FC;" d="M452,61c0,32.999-27.001,60-60,60V0C424.999,0,452,28.001,452,61z"/>
<g>
	<path style="fill:#E5E5E5;" d="M447.499,371.499L392,427l-4.501,4.499C384.8,434.5,380.9,436,377,436s-7.8-1.5-10.499-4.501l-30-30
		c-6-5.7-6-15.298,0-20.999c5.7-6,15.298-6,20.999,0l19.5,19.199l15-15l34.501-34.199c5.7-6,15.298-6,20.999,0
		C453.5,356.201,453.5,365.799,447.499,371.499z"/>
	<path style="fill:#E5E5E5;" d="M160.499,410.501c6,5.7,6,15.298,0,20.999c-5.7,6-15.298,6-20.999,0L120,412.301L100.499,431.5
		c-5.7,6-15.298,6-20.999,0c-6-5.7-6-15.298,0-20.999L98.699,391L79.5,371.499c-6-5.7-6-15.298,0-20.999c5.7-6,15.298-6,20.999,0
		L120,369.699l19.501-19.199c5.7-6,15.298-6,20.999,0c6,5.7,6,15.298,0,20.999L141.301,391L160.499,410.501z"/>
</g>
<path style="fill:#1689FC;" d="M120,91C62.1,91,15,138.1,15,196v30c0,8.401,6.599,15,15,15h180c8.401,0,15-6.599,15-15v-30
	C225,138.1,177.9,91,120,91z"/>
<path style="fill:#136EF1;" d="M225,196v30c0,8.401-6.599,15-15,15h-90V91C177.9,91,225,138.1,225,196z"/>
<path style="fill:#17ACE8;" d="M120,0C87.001,0,60,28.001,60,61s27.001,60,60,60s60-27.001,60-60S152.999,0,120,0z"/>
<path style="fill:#1689FC;" d="M180,61c0,32.999-27.001,60-60,60V0C152.999,0,180,28.001,180,61z"/>
<g>
	<path style="fill:#D9D9D9;" d="M160.499,410.501c6,5.7,6,15.298,0,20.999c-5.7,6-15.298,6-20.999,0L120,412.301V369.7
		l19.501-19.199c5.7-6,15.298-6,20.999,0c6,5.7,6,15.298,0,20.999L141.301,391L160.499,410.501z"/>
	<path style="fill:#D9D9D9;" d="M447.499,371.499L392,427v-42.301l34.501-34.199c5.7-6,15.298-6,20.999,0
		C453.5,356.201,453.5,365.799,447.499,371.499z"/>
</g>
<g>
</g>
<g>
</g>
<g>
</g>
<g>
</g>
<g>
</g>
<g>
</g>
<g>
</g>
<g>
</g>
<g>
</g>
<g>
</g>
<g>
</g>
<g>
</g>
<g>
</g>
<g>
</g>
<g>
</g>
</svg>
