<?xml version="1.0" encoding="iso-8859-1"?>
<!-- Generator: Adobe Illustrator 19.0.0, SVG Export Plug-In . SVG Version: 6.00 Build 0)  -->
<svg version="1.1" id="Capa_1" xmlns="http://www.w3.org/2000/svg" xmlns:xlink="http://www.w3.org/1999/xlink" x="0px" y="0px"
	 viewBox="0 0 512 512" style="enable-background:new 0 0 512 512;" xml:space="preserve">
<path style="fill:#E5E5E5;" d="M391,370.899V482H121V370.899c0-20.099,7.8-39,21.899-53.099l51.301-51.301c5.7-5.7,5.7-15.3,0-21
	h123.6c-5.7,5.7-5.7,15.3,0,21l51.301,51.301C383.2,331.899,391,350.799,391,370.899z"/>
<path style="fill:#D9D9D9;" d="M369.101,317.8C383.2,331.899,391,350.799,391,370.899V482H256V245.499h61.8c-5.7,5.7-5.7,15.3,0,21
	L369.101,317.8z"/>
<path style="fill:#FEA832;" d="M271,286v60c0,8.399-6.599,15-15,15s-15-6.601-15-15v-60c0-8.401,6.599-15,15-15S271,277.599,271,286
	z"/>
<path style="fill:#FE9923;" d="M271,286v60c0,8.399-6.599,15-15,15v-90C264.401,271,271,277.599,271,286z"/>
<path style="fill:#E5E5E5;" d="M391,45v96.099c0,14.399-4.2,28.2-11.7,39.901l-56.999,30H189.699L132.7,181
	c-7.5-11.7-11.7-25.501-11.7-39.901V45c0-8.401,6.599-15,15-15h240C384.401,30,391,36.599,391,45z"/>
<path style="fill:#D9D9D9;" d="M322.301,211H256V30h120c8.401,0,15,6.599,15,15v96.099c0,14.399-4.2,28.2-11.7,39.901L322.301,211z"
	/>
<path style="fill:#FEDB41;" d="M356.499,477.499H155.501c-6-5.7-6-15.3,0-21l90-121C248.2,332.5,252.1,331,256,331
	s7.8,1.5,10.499,4.499l90,121C362.5,462.199,362.5,471.799,356.499,477.499z"/>
<path style="fill:#FCBF29;" d="M356.499,477.499H256V331c3.9,0,7.8,1.5,10.499,4.499l90,121
	C362.5,462.199,362.5,471.799,356.499,477.499z"/>
<path style="fill:#FEDB41;" d="M379.3,181c-2.999,4.799-6.299,9.3-10.199,13.2c-7.2,6.899-12.301,12.299-16.8,16.8
	c-24.901,24.899-17.1,17.1-34.501,34.499c-12.001,11.7-24.6,24.6-51.301,51C263.8,299.5,259.9,301,256,301s-7.8-1.5-10.499-4.501
	c-27.001-26.7-39.6-39.3-51.301-51c-17.401-17.399-9.6-9.6-34.501-34.499c-4.499-4.501-9.6-9.901-16.8-16.8
	c-3.9-3.9-7.2-8.401-10.199-13.2H379.3z"/>
<path style="fill:#FCBF29;" d="M379.3,181c-2.999,4.799-6.299,9.3-10.199,13.2c-7.2,6.899-12.301,12.299-16.8,16.8
	c-24.901,24.899-17.1,17.1-34.501,34.499c-12.001,11.7-24.6,24.6-51.301,51C263.8,299.5,259.9,301,256,301V181H379.3z"/>
<path style="fill:#787780;" d="M421,482v15c0,8.399-6.599,15-15,15H106c-8.401,0-15-6.601-15-15v-15c0-16.5,13.5-30,30-30h270
	C407.5,452,421,465.5,421,482z"/>
<path style="fill:#57555C;" d="M421,482v15c0,8.399-6.599,15-15,15H256v-60h135C407.5,452,421,465.5,421,482z"/>
<path style="fill:#787780;" d="M421,15v15c0,16.5-13.5,30-30,30H121c-16.5,0-30-13.5-30-30V15c0-8.401,6.599-15,15-15h300
	C414.401,0,421,6.599,421,15z"/>
<path style="fill:#57555C;" d="M421,15v15c0,16.5-13.5,30-30,30H256V0h150C414.401,0,421,6.599,421,15z"/>
<g>
</g>
<g>
</g>
<g>
</g>
<g>
</g>
<g>
</g>
<g>
</g>
<g>
</g>
<g>
</g>
<g>
</g>
<g>
</g>
<g>
</g>
<g>
</g>
<g>
</g>
<g>
</g>
<g>
</g>
</svg>
