<?xml version="1.0" encoding="iso-8859-1"?>
<!-- Generator: Adobe Illustrator 19.0.0, SVG Export Plug-In . SVG Version: 6.00 Build 0)  -->
<svg version="1.1" id="Capa_1" xmlns="http://www.w3.org/2000/svg" xmlns:xlink="http://www.w3.org/1999/xlink" x="0px" y="0px"
	 viewBox="0 0 511.999 511.999" style="enable-background:new 0 0 511.999 511.999;" xml:space="preserve">
<path style="fill:#57555C;" d="M278.534,2.336c-6.6-1.199-13.502-1.8-20.402-2.098C170.221-3.963,88.31,47.942,54.706,129.253
	c-2.1,4.5-1.5,9.902,1.201,14.101c2.699,4.201,7.501,6.602,12.601,6.602h33.304l21.604,85.811
	c4.8,20.101,22.803,34.204,43.505,34.204h36.604c8.402,0,15.002-6.602,15.002-15.002v-46.506
	c11.101-2.401,21.304-7.203,30.004-13.803v53.108c0,17.401-9.601,32.703-24.904,40.504l-53.706,26.703
	c-25.502,12.902-41.405,38.404-41.405,67.208v22.803c0,8.4,6.6,15.002,15.002,15.002h270.033c8.402,0,15.002-6.602,15.002-15.002
	V217.763C428.553,98.948,370.346,16.438,278.534,2.336z"/>
<path style="fill:#3C3A41;" d="M428.553,217.763v187.223c0,8.4-6.6,15.002-15.002,15.002H278.534V2.336
	C370.346,16.438,428.553,98.948,428.553,217.763z"/>
<path style="fill:#FEA832;" d="M413.551,389.984H143.518c-24.904,0-45.006,20.101-45.006,45.006v62.008
	c0,8.4,6.6,15.002,15.002,15.002h330.041c8.402,0,15.002-6.602,15.002-15.002V434.99
	C458.556,410.086,438.455,389.984,413.551,389.984z"/>
<circle style="fill:#787780;" cx="173.521" cy="134.956" r="15.002"/>
<path style="fill:#FE9923;" d="M458.556,434.99v62.008c0,8.4-6.6,15.002-15.002,15.002h-165.02V389.984h135.017
	C438.455,389.984,458.556,410.086,458.556,434.99z"/>
<g>
</g>
<g>
</g>
<g>
</g>
<g>
</g>
<g>
</g>
<g>
</g>
<g>
</g>
<g>
</g>
<g>
</g>
<g>
</g>
<g>
</g>
<g>
</g>
<g>
</g>
<g>
</g>
<g>
</g>
</svg>
