<?xml version="1.0" encoding="iso-8859-1"?>
<!-- Generator: Adobe Illustrator 19.0.0, SVG Export Plug-In . SVG Version: 6.00 Build 0)  -->
<svg version="1.1" id="Capa_1" xmlns="http://www.w3.org/2000/svg" xmlns:xlink="http://www.w3.org/1999/xlink" x="0px" y="0px"
	 viewBox="0 0 512 512" style="enable-background:new 0 0 512 512;" xml:space="preserve">
<path style="fill:#19DEC1;" d="M340.699,160.6c-2.699,5.099-7.798,8.099-13.2,8.099c-2.399,0-4.799-0.599-6.899-1.8
	C301.099,156.4,278.2,151.3,256,151.3s-45.099,5.099-64.6,15.599c-7.2,3.9-16.199,1.201-20.099-6.299
	c-3.9-7.202-1.201-16.201,5.999-20.101c23.7-12.9,51.699-19.199,78.7-19.199s55,6.299,78.701,19.199
	C341.901,144.399,344.599,153.399,340.699,160.6z"/>
<path style="fill:#17CEB4;" d="M331.868,431.02c-5.186,0-10.225-2.695-13.008-7.5c-4.146-7.178-1.685-16.348,5.493-20.493
	C366.087,378.959,392,334.105,392,286c0-18.779-3.779-36.943-11.221-53.994c-3.325-7.588,0.146-16.436,7.734-19.746
	c7.632-3.369,16.45,0.161,19.746,7.734C417.386,240.854,422,263.061,422,286c0,58.799-31.67,113.599-82.646,143.013
	C336.995,430.375,334.417,431.02,331.868,431.02z"/>
<path style="fill:#19DEC1;" d="M180.132,431.02c-2.549,0-5.127-0.645-7.485-2.007C121.67,399.599,90,344.799,90,286
	c0-22.939,4.614-45.146,13.74-66.006c3.325-7.573,12.158-11.104,19.746-7.734c7.588,3.311,11.06,12.158,7.734,19.746
	C123.779,249.057,120,267.221,120,286c0,48.105,25.913,92.959,67.646,117.026c7.178,4.146,9.639,13.315,5.493,20.493
	C190.356,428.324,185.317,431.02,180.132,431.02z"/>
<path style="fill:#17CEB4;" d="M340.699,160.6c-2.699,5.099-7.798,8.099-13.2,8.099c-2.399,0-4.799-0.599-6.899-1.8
	C301.099,156.4,278.2,151.3,256,151.3v-30c27.001,0,55,6.299,78.701,19.199C341.901,144.399,344.599,153.399,340.699,160.6z"/>
<path style="fill:#1689FC;" d="M407,91c-57.9,0-105,47.1-105,105v30c0,8.401,6.599,15,15,15h180c8.401,0,15-6.599,15-15v-30
	C512,138.1,464.9,91,407,91z"/>
<path style="fill:#136EF1;" d="M512,196v30c0,8.401-6.599,15-15,15h-90V91C464.9,91,512,138.1,512,196z"/>
<path style="fill:#17ACE8;" d="M407,0c-32.999,0-60,28.001-60,61s27.001,60,60,60s60-27.001,60-60S439.999,0,407,0z"/>
<g>
	<path style="fill:#1689FC;" d="M467,61c0,32.999-27.001,60-60,60V0C439.999,0,467,28.001,467,61z"/>
	<path style="fill:#1689FC;" d="M105,91C47.1,91,0,138.1,0,196v30c0,8.401,6.599,15,15,15h180c8.401,0,15-6.599,15-15v-30
		C210,138.1,162.9,91,105,91z"/>
</g>
<path style="fill:#136EF1;" d="M210,196v30c0,8.401-6.599,15-15,15h-90V91C162.9,91,210,138.1,210,196z"/>
<path style="fill:#17ACE8;" d="M105,0C72.001,0,45,28.001,45,61s27.001,60,60,60s60-27.001,60-60S137.999,0,105,0z"/>
<g>
	<path style="fill:#1689FC;" d="M165,61c0,32.999-27.001,60-60,60V0C137.999,0,165,28.001,165,61z"/>
	<path style="fill:#1689FC;" d="M256,361c-57.9,0-106,47.1-106,105v31c0,8.401,6.599,15,15,15h182c8.401,0,15-6.599,15-15v-31
		C362,408.1,313.9,361,256,361z"/>
</g>
<path style="fill:#136EF1;" d="M362,466v31c0,8.401-6.599,15-15,15h-91V361C313.9,361,362,408.1,362,466z"/>
<path style="fill:#17ACE8;" d="M256,271c-32.999,0-61,27.001-61,60s28.001,60,61,60s61-27.001,61-60S288.999,271,256,271z"/>
<path style="fill:#1689FC;" d="M317,331c0,32.999-28.001,60-61,60V271C288.999,271,317,298.001,317,331z"/>
<g>
</g>
<g>
</g>
<g>
</g>
<g>
</g>
<g>
</g>
<g>
</g>
<g>
</g>
<g>
</g>
<g>
</g>
<g>
</g>
<g>
</g>
<g>
</g>
<g>
</g>
<g>
</g>
<g>
</g>
</svg>
