<?xml version="1.0" encoding="iso-8859-1"?>
<!-- Generator: Adobe Illustrator 19.0.0, SVG Export Plug-In . SVG Version: 6.00 Build 0)  -->
<svg version="1.1" id="Capa_1" xmlns="http://www.w3.org/2000/svg" xmlns:xlink="http://www.w3.org/1999/xlink" x="0px" y="0px"
	 viewBox="0 0 512 512" style="enable-background:new 0 0 512 512;" xml:space="preserve">
<path style="fill:#787780;" d="M323.488,14.999c0,280.477,0-102.091,0,481.962c0,8.398-6.598,14.999-14.999,14.999
	c-8.4,0-14.999-6.6-14.999-14.999V14.999c0-8.4,6.598-14.999,14.999-14.999C316.89,0,323.488,6.598,323.488,14.999z"/>
<path style="fill:#57555C;" d="M323.488,14.999c0,280.477,0-102.091,0,481.962c0,8.398-6.598,14.999-14.999,14.999V0
	C316.89,0,323.488,6.598,323.488,14.999z"/>
<path style="fill:#17ACE8;" d="M158.501,30.998c-32.996,0-59.995,26.999-59.995,59.995s26.999,59.995,59.995,59.995
	s59.995-26.999,59.995-59.995S191.498,30.998,158.501,30.998z"/>
<g>
	<path style="fill:#1689FC;" d="M338.487,180.986c0,16.499-13.499,29.998-29.998,29.998h-89.993v100.792l28.799,162.087
		c5.099,17.7-5.7,32.698-20.398,36.896c-2.701,0.601-5.402,1.201-7.799,1.201c-13.499,0-25.799-8.999-29.399-21.899l-31.197-131.489
		l-31.197,131.489c-4.501,15.9-20.698,25.499-37.199,20.698c-15.898-4.499-24.897-20.997-20.398-36.896l26.398-147.688l-21.897,4.2
		c-1.8,0.3-3.6,0.601-5.7,0.601c-16.499,0-29.998-13.499-29.998-29.998v-89.993c0-32.998,26.999-59.995,59.995-59.995H308.49
		C324.988,150.988,338.487,164.487,338.487,180.986z"/>
	<path style="fill:#1689FC;" d="M218.496,90.993c0,32.996-26.999,59.995-59.995,59.995V30.998
		C191.498,30.998,218.496,57.996,218.496,90.993z"/>
</g>
<path style="fill:#136EF1;" d="M338.487,180.986c0,16.499-13.499,29.998-29.998,29.998h-89.993v100.792l28.799,162.087
	c5.099,17.7-5.7,32.698-20.398,36.896c-2.701,0.601-5.402,1.201-7.799,1.201c-13.499,0-25.799-8.999-29.399-21.899l-31.197-131.489
	V150.988H308.49C324.988,150.988,338.487,164.487,338.487,180.986z"/>
<path style="fill:#FD3018;" d="M434.781,60.995l34.196-34.498c4.501-4.199,5.7-11.498,3.301-17.198C469.877,3.6,464.478,0,458.478,0
	H308.489c-8.4,0-14.999,6.598-14.999,14.999v105.992h164.987c6,0,11.399-3.6,13.8-9.299c2.399-5.7,1.199-12-3.301-16.198
	L434.781,60.995z"/>
<path style="fill:#E61E14;" d="M468.976,95.494c4.501,4.199,5.7,10.498,3.301,16.198c-2.401,5.7-7.799,9.299-13.8,9.299H308.488V0
	h149.988c6,0,11.399,3.6,13.8,9.299c2.399,5.7,1.199,13-3.301,17.198l-34.195,34.498L468.976,95.494z"/>
<g>
</g>
<g>
</g>
<g>
</g>
<g>
</g>
<g>
</g>
<g>
</g>
<g>
</g>
<g>
</g>
<g>
</g>
<g>
</g>
<g>
</g>
<g>
</g>
<g>
</g>
<g>
</g>
<g>
</g>
</svg>
