<?xml version="1.0" encoding="iso-8859-1"?>
<!-- Generator: Adobe Illustrator 19.0.0, SVG Export Plug-In . SVG Version: 6.00 Build 0)  -->
<svg version="1.1" id="Capa_1" xmlns="http://www.w3.org/2000/svg" xmlns:xlink="http://www.w3.org/1999/xlink" x="0px" y="0px"
	 viewBox="0 0 512 512" style="enable-background:new 0 0 512 512;" xml:space="preserve">
<path style="fill:#FD4E26;" d="M134.994,330.696H44.998c-8.401,0-14.999,6.599-14.999,14.999v150.993
	c0,8.401,6.599,14.999,14.999,14.999h89.996c8.401,0,14.999-6.599,14.999-14.999V345.695
	C149.993,337.294,143.395,330.696,134.994,330.696z"/>
<path style="fill:#17ACE8;" d="M285.987,240.7h-90.996c-8.401,0-14.999,6.599-14.999,14.999v240.989
	c0,8.401,6.599,14.999,14.999,14.999h90.996c8.401,0,14.999-6.599,14.999-14.999V255.699
	C300.986,247.298,294.388,240.7,285.987,240.7z"/>
<path style="fill:#19DEC1;" d="M509.276,157.005L404.281,6.011c-2.699-3.9-7.5-5.7-12.298-5.7s-9.6,1.8-12.298,5.7L273.689,157.005
	c-3.301,4.799-3.602,10.8-0.901,15.598c2.401,5.101,7.5,8.101,13.199,8.101h44.998v315.986c0,8.401,6.599,14.999,14.999,14.999
	h90.996c8.401,0,14.999-6.599,14.999-14.999V180.703h44.998c5.7,0,10.799-2.999,13.199-8.101
	C512.878,167.803,512.578,161.803,509.276,157.005z"/>
<path style="fill:#17CEB4;" d="M510.177,172.603c-2.401,5.101-7.5,8.101-13.199,8.101H451.98v315.986
	c0,8.401-6.599,14.999-14.999,14.999h-44.998V0.312c4.799,0,9.6,1.8,12.298,5.7l104.995,150.993
	C512.578,161.803,512.878,167.803,510.177,172.603z"/>
<path style="fill:#1689FC;" d="M300.986,255.699v240.989c0,8.401-6.599,14.999-14.999,14.999h-45.998V240.7h45.998
	C294.388,240.7,300.986,247.298,300.986,255.699z"/>
<path style="fill:#FD3018;" d="M149.993,345.695v150.993c0,8.401-6.599,14.999-14.999,14.999H89.996V330.696h44.998
	C143.395,330.696,149.993,337.294,149.993,345.695z"/>
<path style="fill:#787780;" d="M511.977,496.688c0,8.401-6.599,14.999-14.999,14.999H14.999C6.599,511.688,0,505.089,0,496.688
	c0-8.401,6.599-14.999,14.999-14.999h481.978C505.378,481.689,511.977,488.288,511.977,496.688z"/>
<path style="fill:#57555C;" d="M511.977,496.688c0,8.401-6.599,14.999-14.999,14.999H239.989v-29.999h256.988
	C505.378,481.689,511.977,488.288,511.977,496.688z"/>
<g>
</g>
<g>
</g>
<g>
</g>
<g>
</g>
<g>
</g>
<g>
</g>
<g>
</g>
<g>
</g>
<g>
</g>
<g>
</g>
<g>
</g>
<g>
</g>
<g>
</g>
<g>
</g>
<g>
</g>
</svg>
