<?xml version="1.0" encoding="iso-8859-1"?>
<!-- Generator: Adobe Illustrator 19.0.0, SVG Export Plug-In . SVG Version: 6.00 Build 0)  -->
<svg version="1.1" id="Capa_1" xmlns="http://www.w3.org/2000/svg" xmlns:xlink="http://www.w3.org/1999/xlink" x="0px" y="0px"
	 viewBox="0 0 512.001 512.001" style="enable-background:new 0 0 512.001 512.001;" xml:space="preserve">
<path style="fill:#19DEC1;" d="M511.995,75.998v239.995c0,41.399-33.599,74.998-74.998,74.998H75.004
	c-41.399,0-74.998-33.599-74.998-74.998V75.998C0.006,34.599,33.605,0,75.004,0h361.992C478.396,0,511.995,34.599,511.995,75.998z"
	/>
<path style="fill:#17CEB4;" d="M511.995,75.998v239.995c0,41.399-33.599,74.998-74.998,74.998H256V0h180.996
	C478.396,0,511.995,34.599,511.995,75.998z"/>
<path style="fill:#E5E5E5;" d="M451.996,105.998v224.995H105.004c-8.401,0-15-6.599-15-15s-6.599-15-15-15s-15-6.599-15-15V105.998
	c0-8.401,6.599-15,15-15s15-6.599,15-15s6.599-15,15-15h301.994c8.401,0,15,6.599,15,15s6.599,15,15,15
	S451.996,97.597,451.996,105.998z"/>
<path style="fill:#D9D9D9;" d="M451.996,105.998v224.995H256V60.999h150.997c8.401,0,15,6.599,15,15s6.599,15,15,15
	S451.996,97.597,451.996,105.998z"/>
<g>
	<path style="fill:#C8C6CD;" d="M391.998,135.997c0,8.401-6.599,15-15,15H135.003c-8.401,0-15-6.599-15-15s6.599-15,15-15h241.995
		C385.398,120.997,391.998,127.596,391.998,135.997z"/>
	<path style="fill:#C8C6CD;" d="M391.998,195.996c0,8.401-6.599,15-15,15H135.003c-8.401,0-15-6.599-15-15c0-8.401,6.599-15,15-15
		h241.995C385.398,180.996,391.998,187.595,391.998,195.996z"/>
	<path style="fill:#C8C6CD;" d="M391.998,255.995c0,8.401-6.599,15-15,15H135.003c-8.401,0-15-6.599-15-15s6.599-15,15-15h241.995
		C385.398,240.995,391.998,247.594,391.998,255.995z"/>
</g>
<g>
	<path style="fill:#AEADB3;" d="M391.998,255.995c0,8.401-6.599,15-15,15H256v-29.999h120.997
		C385.398,240.995,391.998,247.594,391.998,255.995z"/>
	<path style="fill:#AEADB3;" d="M391.998,195.996c0,8.401-6.599,15-15,15H256v-29.999h120.997
		C385.398,180.996,391.998,187.595,391.998,195.996z"/>
	<path style="fill:#AEADB3;" d="M376.998,150.997H256v-29.999h120.997c8.401,0,15,6.599,15,15S385.398,150.997,376.998,150.997z"/>
</g>
<path style="fill:#FD3018;" d="M451.996,330.993v165.996c0,6-3.6,11.4-9.3,13.801c-5.4,2.399-12.001,1.199-16.199-3.301
	l-49.5-49.198l-49.5,49.198c-4.199,4.501-10.499,5.7-16.199,3.301c-5.7-2.401-9.3-7.8-9.3-13.801V330.993H451.996z"/>
<path style="fill:#E61E14;" d="M451.996,330.993v165.996c0,6-3.6,11.4-9.3,13.801c-5.4,2.399-12.001,1.199-16.199-3.301
	l-49.5-49.198V330.993H451.996z"/>
<path style="fill:#FEDB41;" d="M376.998,240.995c-41.399,0-74.998,33.599-74.998,74.998s33.599,74.998,74.998,74.998
	s74.998-33.599,74.998-74.998S418.397,240.995,376.998,240.995z"/>
<path style="fill:#FCBF29;" d="M451.996,315.993c0,41.399-33.599,74.998-74.998,74.998V240.995
	C418.397,240.995,451.996,274.594,451.996,315.993z"/>
<g>
</g>
<g>
</g>
<g>
</g>
<g>
</g>
<g>
</g>
<g>
</g>
<g>
</g>
<g>
</g>
<g>
</g>
<g>
</g>
<g>
</g>
<g>
</g>
<g>
</g>
<g>
</g>
<g>
</g>
</svg>
