<?xml version="1.0" encoding="iso-8859-1"?>
<!-- Generator: Adobe Illustrator 19.0.0, SVG Export Plug-In . SVG Version: 6.00 Build 0)  -->
<svg version="1.1" id="Capa_1" xmlns="http://www.w3.org/2000/svg" xmlns:xlink="http://www.w3.org/1999/xlink" x="0px" y="0px"
	 viewBox="0 0 512 512" style="enable-background:new 0 0 512 512;" xml:space="preserve">
<path style="fill:#FD4E26;" d="M256,0C148.599,0,61,88.599,61,196c0,41.1,12.599,80.4,36.899,113.699l146.1,196.3
	c2.701,3.9,7.202,6,12.001,6c4.799,0,9.3-2.1,12.001-6l144.899-194.5c24.9-33.6,38.1-73.5,38.1-115.499C451,88.599,363.401,0,256,0z
	"/>
<path style="fill:#FD3018;" d="M451,196c0,41.999-13.2,81.899-38.101,115.499L268.001,506c-2.701,3.9-7.202,6-12.001,6V0
	C363.401,0,451,88.599,451,196z"/>
<path style="fill:#FEDB41;" d="M256,61c-74.399,0-135,60.599-135,135c0,74.399,60.601,135,135,135s135-60.601,135-135
	C391,121.599,330.399,61,256,61z"/>
<path style="fill:#FCBF29;" d="M391,196c0,74.399-60.601,135-135,135V61C330.399,61,391,121.599,391,196z"/>
<path style="fill:#FEA832;" d="M256,91c-57.9,0-105,47.1-105,105s47.1,105,105,105s105-47.1,105-105S313.9,91,256,91z"/>
<path style="fill:#FE9923;" d="M361,196c0,57.9-47.1,105-105,105V91C313.9,91,361,138.1,361,196z"/>
<path style="fill:#FEDB41;" d="M301,226c0,19.499-12.599,36-30,42.299V286c0,8.399-6.599,15-15,15s-15-6.601-15-15v-17.701
	c-11.7-4.2-21.301-12.9-26.4-24.901c-3.3-7.5,0.3-16.199,7.8-19.499c7.8-3.3,16.5,0.3,19.799,7.8C244.6,237.4,250,241,256,241
	c8.401,0,15-6.601,15-15c0-8.401-6.599-15-15-15c-24.901,0-45-20.101-45-45c0-19.501,12.599-36,30-42.301V106
	c0-8.401,6.599-15,15-15s15,6.599,15,15v17.699c11.7,4.2,21.301,12.9,26.4,24.901c3.3,7.5-0.3,16.199-7.8,19.501
	c-7.8,3.3-16.5-0.3-19.799-7.8C267.4,154.6,262,151,256,151c-8.401,0-15,6.599-15,15c0,8.399,6.599,15,15,15
	C280.901,181,301,201.099,301,226z"/>
<g>
	<path style="fill:#FCBF29;" d="M301,226c0,19.499-12.599,36-30,42.299V286c0,8.399-6.599,15-15,15v-60c8.401,0,15-6.601,15-15
		c0-8.401-6.599-15-15-15v-30C280.901,181,301,201.099,301,226z"/>
	<path style="fill:#FCBF29;" d="M256,151V91c8.401,0,15,6.599,15,15v17.699c11.7,4.2,21.301,12.9,26.4,24.901
		c3.3,7.5-0.3,16.199-7.8,19.501c-7.8,3.3-16.5-0.3-19.799-7.8C267.4,154.6,262,151,256,151z"/>
</g>
<g>
</g>
<g>
</g>
<g>
</g>
<g>
</g>
<g>
</g>
<g>
</g>
<g>
</g>
<g>
</g>
<g>
</g>
<g>
</g>
<g>
</g>
<g>
</g>
<g>
</g>
<g>
</g>
<g>
</g>
</svg>
