<?xml version="1.0" encoding="iso-8859-1"?>
<!-- Generator: Adobe Illustrator 19.0.0, SVG Export Plug-In . SVG Version: 6.00 Build 0)  -->
<svg version="1.1" id="Capa_1" xmlns="http://www.w3.org/2000/svg" xmlns:xlink="http://www.w3.org/1999/xlink" x="0px" y="0px"
	 viewBox="0 0 512 512" style="enable-background:new 0 0 512 512;" xml:space="preserve">
<path style="fill:#19DEC1;" d="M271,346v90c0,8.399-6.599,15-15,15s-15-6.601-15-15v-90c0-8.401,6.599-15,15-15S271,337.599,271,346
	z"/>
<path style="fill:#17CEB4;" d="M271,346v90c0,8.399-6.599,15-15,15V331C264.401,331,271,337.599,271,346z"/>
<path style="fill:#19DEC1;" d="M271,76v60c0,8.399-6.599,15-15,15s-15-6.601-15-15V76c0-8.401,6.599-15,15-15S271,67.599,271,76z"/>
<path style="fill:#17CEB4;" d="M271,76v60c0,8.399-6.599,15-15,15V61C264.401,61,271,67.599,271,76z"/>
<g>
	<path style="fill:#19DEC1;" d="M229.853,244.853c-3.838,0-7.676-1.465-10.605-4.395L118.114,139.325
		c-5.859-5.859-5.859-15.352,0-21.211s15.352-5.859,21.211,0l101.133,101.133c5.859,5.859,5.859,15.352,0,21.211
		C237.528,243.388,233.69,244.853,229.853,244.853z"/>
	<path style="fill:#19DEC1;" d="M188.91,271H76c-8.291,0-15-6.709-15-15s6.709-15,15-15h112.91c8.291,0,15,6.709,15,15
		C203.91,264.291,197.201,271,188.91,271z"/>
</g>
<path style="fill:#17CEB4;" d="M436,271H323.09c-8.291,0-15-6.709-15-15s6.709-15,15-15H436c8.291,0,15,6.709,15,15
	C451,264.291,444.291,271,436,271z"/>
<path style="fill:#19DEC1;" d="M128.72,398.28c-3.838,0-7.676-1.465-10.605-4.395c-5.859-5.859-5.859-15.352,0-21.211l37.28-37.28
	c5.859-5.859,15.352-5.859,21.211,0s5.859,15.352,0,21.211l-37.28,37.28C136.396,396.815,132.558,398.28,128.72,398.28z"/>
<g>
	<path style="fill:#17CEB4;" d="M282.147,244.853c-3.838,0-7.676-1.465-10.605-4.395c-5.859-5.859-5.859-15.352,0-21.211
		l101.133-101.133c5.859-5.859,15.352-5.859,21.211,0s5.859,15.352,0,21.211L292.753,240.458
		C289.823,243.388,285.985,244.853,282.147,244.853z"/>
	<path style="fill:#17CEB4;" d="M383.28,398.28c-3.838,0-7.676-1.465-10.605-4.395l-37.28-37.28c-5.859-5.859-5.859-15.352,0-21.211
		s15.352-5.859,21.211,0l37.28,37.28c5.859,5.859,5.859,15.352,0,21.211C390.956,396.815,387.118,398.28,383.28,398.28z"/>
</g>
<g>
	<path style="fill:#19DEC1;" d="M48.124,241.073c-0.703,0-1.421-0.044-2.139-0.146c-8.203-1.172-13.901-8.774-12.729-16.978
		c5.317-37.148,20.054-72.686,42.598-102.773c4.951-6.606,14.341-7.983,20.991-3.003c6.636,4.966,7.983,14.355,3.003,20.991
		c-19.526,26.074-32.285,56.851-36.885,89.033C61.894,235.683,55.478,241.073,48.124,241.073z"/>
	<path style="fill:#19DEC1;" d="M130.185,102.851c-4.57,0-9.067-2.08-12.012-6.006c-4.98-6.636-3.633-16.025,3.003-20.991
		c30.088-22.544,65.625-37.28,102.773-42.598c8.188-1.23,15.806,4.526,16.978,12.729s-4.526,15.806-12.729,16.978
		c-32.183,4.6-62.959,17.358-89.033,36.885C136.469,101.869,133.305,102.851,130.185,102.851z"/>
</g>
<g>
	<path style="fill:#17CEB4;" d="M381.815,102.851c-3.12,0-6.284-0.981-8.979-3.003c-26.074-19.526-56.851-32.285-89.033-36.885
		c-8.203-1.172-13.901-8.774-12.729-16.978c1.187-8.188,8.862-13.828,16.978-12.729c37.148,5.317,72.686,20.054,102.773,42.598
		c6.636,4.966,7.983,14.355,3.003,20.991C390.883,100.771,386.386,102.851,381.815,102.851z"/>
	<path style="fill:#17CEB4;" d="M463.876,241.073c-7.354,0-13.77-5.391-14.839-12.876c-4.6-32.183-17.358-62.959-36.885-89.033
		c-4.98-6.636-3.633-16.025,3.003-20.991c6.636-4.98,16.055-3.604,20.991,3.003c22.544,30.088,37.28,65.625,42.598,102.773
		c1.172,8.203-4.526,15.806-12.729,16.978C465.297,241.029,464.579,241.073,463.876,241.073z"/>
	<path style="fill:#17CEB4;" d="M424.135,396.83c-3.12,0-6.284-0.981-8.979-3.003c-6.636-4.966-7.983-14.355-3.003-20.991
		c19.526-26.074,32.285-56.851,36.885-89.033c1.172-8.188,8.818-13.813,16.978-12.729c8.203,1.172,13.901,8.774,12.729,16.978
		c-5.317,37.148-20.054,72.686-42.598,102.773C433.202,394.75,428.705,396.83,424.135,396.83z"/>
	<path style="fill:#17CEB4;" d="M285.912,478.891c-7.354,0-13.77-5.391-14.839-12.876c-1.172-8.203,4.526-15.806,12.729-16.978
		c32.183-4.6,62.959-17.358,89.033-36.885c6.636-4.995,16.025-3.589,20.991,3.003c4.98,6.636,3.633,16.025-3.003,20.991
		c-30.088,22.544-65.625,37.28-102.773,42.598C287.333,478.847,286.615,478.891,285.912,478.891z"/>
</g>
<g>
	<path style="fill:#19DEC1;" d="M226.088,478.891c-0.703,0-1.421-0.044-2.139-0.146c-37.148-5.317-72.686-20.054-102.773-42.598
		c-6.636-4.966-7.983-14.355-3.003-20.991c4.951-6.592,14.341-7.998,20.991-3.003c26.074,19.526,56.851,32.285,89.033,36.885
		c8.203,1.172,13.901,8.774,12.729,16.978C239.857,473.5,233.441,478.891,226.088,478.891z"/>
	<path style="fill:#19DEC1;" d="M87.865,396.83c-4.57,0-9.067-2.08-12.012-6.006c-22.544-30.088-37.28-65.625-42.598-102.773
		c-1.172-8.203,4.526-15.806,12.729-16.978c8.232-1.216,15.806,4.526,16.978,12.729c4.6,32.183,17.358,62.959,36.885,89.033
		c4.98,6.636,3.633,16.025-3.003,20.991C94.149,395.849,90.985,396.83,87.865,396.83z"/>
</g>
<path style="fill:#1689FC;" d="M256,211c-57.9,0-105,47.1-105,105v30c0,8.401,6.599,15,15,15h180c8.401,0,15-6.599,15-15v-30
	C361,258.1,313.9,211,256,211z"/>
<path style="fill:#136EF1;" d="M361,316v30c0,8.401-6.599,15-15,15h-90V211C313.9,211,361,258.1,361,316z"/>
<path style="fill:#17ACE8;" d="M256,121c-32.999,0-60,27.001-60,60s27.001,60,60,60s60-27.001,60-60S288.999,121,256,121z"/>
<path style="fill:#1689FC;" d="M316,181c0,32.999-27.001,60-60,60V121C288.999,121,316,148.001,316,181z"/>
<path style="fill:#17ACE8;" d="M256,0c-24.901,0-45,21.099-45,46c0,24.899,20.099,45,45,45s45-20.101,45-45
	C301,21.099,280.901,0,256,0z"/>
<path style="fill:#1689FC;" d="M256,91V0c24.901,0,45,21.099,45,46C301,70.899,280.901,91,256,91z"/>
<path style="fill:#17ACE8;" d="M256,421c-24.901,0-45,20.099-45,45c0,24.899,20.099,46,45,46s45-21.101,45-46
	C301,441.099,280.901,421,256,421z"/>
<path style="fill:#1689FC;" d="M301,466c0,24.899-20.099,46-45,46v-91C280.901,421,301,441.099,301,466z"/>
<path style="fill:#17ACE8;" d="M46,301c-24.814,0-46-20.186-46-45s21.186-45,46-45s45,20.186,45,45S70.814,301,46,301z"/>
<path style="fill:#1689FC;" d="M466,301c-24.814,0-45-20.186-45-45s20.186-45,45-45s46,20.186,46,45S490.814,301,466,301z"/>
<path style="fill:#17ACE8;" d="M75.692,436.308c-17.549-17.549-17.549-46.084,0-63.633s46.084-17.549,63.633,0
	s17.549,46.084,0,63.633S93.242,453.857,75.692,436.308z"/>
<g>
	<path style="fill:#1689FC;" d="M372.675,139.325c-17.549-17.549-17.549-46.084,0-63.633s46.084-17.549,63.633,0
		s17.549,46.084,0,63.633C418.758,156.875,390.224,156.875,372.675,139.325z"/>
	<path style="fill:#1689FC;" d="M372.675,436.308c-17.549-17.549-17.549-46.084,0-63.633s46.084-17.549,63.633,0
		s17.549,46.084,0,63.633C418.758,453.857,390.224,453.857,372.675,436.308z"/>
</g>
<path style="fill:#17ACE8;" d="M75.692,139.325c-17.549-17.549-17.549-46.084,0-63.633s46.084-17.549,63.633,0
	s17.549,46.084,0,63.633C121.776,156.875,93.242,156.875,75.692,139.325z"/>
<g>
</g>
<g>
</g>
<g>
</g>
<g>
</g>
<g>
</g>
<g>
</g>
<g>
</g>
<g>
</g>
<g>
</g>
<g>
</g>
<g>
</g>
<g>
</g>
<g>
</g>
<g>
</g>
<g>
</g>
</svg>
