<?xml version="1.0" encoding="iso-8859-1"?>
<!-- Generator: Adobe Illustrator 19.0.0, SVG Export Plug-In . SVG Version: 6.00 Build 0)  -->
<svg version="1.1" id="Capa_1" xmlns="http://www.w3.org/2000/svg" xmlns:xlink="http://www.w3.org/1999/xlink" x="0px" y="0px"
	 viewBox="0 0 512 512" style="enable-background:new 0 0 512 512;" xml:space="preserve">
<path style="fill:#19DEC1;" d="M329.5,96.599C326.8,101.7,321.7,105,316,105h-30v196h-60V105h-30c-5.7,0-10.8-3.3-13.5-8.401
	c-2.401-5.099-1.8-11.1,1.5-15.599l60-75c3-4.2,7.499-6,12-6s9,1.8,12.001,6l60,75C331.3,85.499,331.901,91.5,329.5,96.599z"/>
<path style="fill:#17CEB4;" d="M329.5,96.599C326.8,101.7,321.7,105,316,105h-30v196h-30V0c4.501,0,9,1.8,12.001,6l60,75
	C331.3,85.499,331.901,91.5,329.5,96.599z"/>
<path style="fill:#FEDB41;" d="M481,391h-60v-75c0-8.401-6.599-15-15-15h-60v-75c0-8.401-6.599-15-15-15H181
	c-8.401,0-15,6.599-15,15v75h-60c-8.401,0-15,6.599-15,15v75H31c-8.401,0-15,6.599-15,15v91c0,8.399,6.599,15,15,15h450
	c8.401,0,15-6.601,15-15v-91C496,397.599,489.401,391,481,391z"/>
<path style="fill:#FEA832;" d="M346,421v61h120v-61H346z M196,421v61h120v-61H196z M46,421v61h120v-61H46z M121,331v60h120v-60H121z
	 M196,241v60h120v-60H196z M271,331v60h120v-60H271z"/>
<path style="fill:#FCBF29;" d="M496,406v91c0,8.399-6.599,15-15,15H256V211h75c8.401,0,15,6.599,15,15v75h60c8.401,0,15,6.599,15,15
	v75h60C489.401,391,496,397.599,496,406z"/>
<g>
	<rect x="256" y="241" style="fill:#FE9923;" width="60" height="60"/>
	<rect x="256" y="421" style="fill:#FE9923;" width="60" height="61"/>
	<rect x="271" y="331" style="fill:#FE9923;" width="120" height="60"/>
	<rect x="346" y="421" style="fill:#FE9923;" width="120" height="61"/>
</g>
<g>
</g>
<g>
</g>
<g>
</g>
<g>
</g>
<g>
</g>
<g>
</g>
<g>
</g>
<g>
</g>
<g>
</g>
<g>
</g>
<g>
</g>
<g>
</g>
<g>
</g>
<g>
</g>
<g>
</g>
</svg>
