<?xml version="1.0" encoding="iso-8859-1"?>
<!-- Generator: Adobe Illustrator 19.0.0, SVG Export Plug-In . SVG Version: 6.00 Build 0)  -->
<svg version="1.1" id="Capa_1" xmlns="http://www.w3.org/2000/svg" xmlns:xlink="http://www.w3.org/1999/xlink" x="0px" y="0px"
	 viewBox="0 0 512.001 512.001" style="enable-background:new 0 0 512.001 512.001;" xml:space="preserve">
<path style="fill:#57555C;" d="M452.574,228.064L314.688,90.178l53.033-53.033c5.858-5.858,15.355-5.858,21.213,0l118.673,116.673
	c5.858,5.858,5.858,15.355,0,21.213L452.574,228.064z"/>
<path style="fill:#787780;" d="M60.13,217.458L4.393,164.425c-5.858-5.858-5.858-15.355,0-21.213L113.163,37.145
	c5.858-5.858,15.355-5.858,21.213,0l53.033,53.033L60.13,217.458z"/>
<path style="fill:#FCBF29;" d="M412.799,373.905c13.181-13.181,13.181-34.549,0-47.73c13.181,13.181,34.549,13.181,47.73,0
	s13.181-34.549,0-47.73c-115.755-115.754,73.48,73.481-188.268-188.267c-35.147-35.147-92.132-35.147-127.279,0L38.917,196.244
	c-11.716,11.716-11.716,30.71,0,42.426C150.545,350.299,202.492,402.246,269.61,469.364c13.181,13.181,34.549,13.181,47.73,0
	s13.181-34.549,0-47.73c13.181,13.181,34.549,13.181,47.73,0s13.181-34.549,0-47.73C378.25,387.086,399.618,387.086,412.799,373.905
	z"/>
<g>
	<path style="fill:#FEDB41;" d="M473.787,206.851L357.115,90.178c-35.147-35.147-92.132-35.147-127.279,0l-63.64,63.64
		c-11.716,11.716-11.716,30.71,0,42.426s30.71,11.716,42.426,0l42.426-42.426c23.431-23.431,61.421-23.431,84.853,0l116.674,116.673
		l21.213-21.213C485.503,237.562,485.503,218.567,473.787,206.851z"/>
	<path style="fill:#FEDB41;" d="M41.569,326.175L41.569,326.175c-13.18-13.18-13.18-34.55,0-47.73l58.336-58.336
		c13.18-13.18,34.549-13.18,47.73,0l0,0c13.18,13.18,13.18,34.549,0,47.73l-58.336,58.336
		C76.117,339.356,54.749,339.356,41.569,326.175z"/>
	<path style="fill:#FEDB41;" d="M89.298,373.905L89.298,373.905c-13.18-13.18-13.18-34.55,0-47.73l58.336-58.336
		c13.18-13.18,34.549-13.18,47.73,0l0,0c13.18,13.18,13.18,34.549,0,47.73l-58.336,58.336
		C123.848,387.085,102.479,387.085,89.298,373.905z"/>
	<path style="fill:#FEDB41;" d="M137.027,421.635L137.027,421.635c-13.18-13.18-13.18-34.55,0-47.73l58.336-58.336
		c13.18-13.18,34.549-13.18,47.73,0l0,0c13.18,13.18,13.18,34.549,0,47.73l-58.336,58.336
		C171.577,434.815,150.208,434.815,137.027,421.635z"/>
	<path style="fill:#FEDB41;" d="M184.758,469.365L184.758,469.365c-13.18-13.18-13.18-34.55,0-47.73l58.336-58.336
		c13.18-13.18,34.549-13.18,47.73,0l0,0c13.18,13.18,13.18,34.549,0,47.73l-58.336,58.336
		C219.307,482.545,197.938,482.545,184.758,469.365z"/>
</g>
<g>
</g>
<g>
</g>
<g>
</g>
<g>
</g>
<g>
</g>
<g>
</g>
<g>
</g>
<g>
</g>
<g>
</g>
<g>
</g>
<g>
</g>
<g>
</g>
<g>
</g>
<g>
</g>
<g>
</g>
</svg>
