<?xml version="1.0" encoding="iso-8859-1"?>
<!-- Generator: Adobe Illustrator 19.0.0, SVG Export Plug-In . SVG Version: 6.00 Build 0)  -->
<svg version="1.1" id="Capa_1" xmlns="http://www.w3.org/2000/svg" xmlns:xlink="http://www.w3.org/1999/xlink" x="0px" y="0px"
	 viewBox="0 0 512 512" style="enable-background:new 0 0 512 512;" xml:space="preserve">
<path style="fill:#19DEC1;" d="M330.5,97.599C327.8,102.7,322.7,106,317,106h-30v195h-62V106h-30c-5.7,0-10.8-3.3-13.5-8.401
	c-2.401-5.099-1.8-11.1,1.5-15.599l61-76c3-4.2,7.499-6,12-6s9,1.8,12.001,6l61,76C332.3,86.499,332.901,92.5,330.5,97.599z"/>
<path style="fill:#17CEB4;" d="M330.5,97.599C327.8,102.7,322.7,106,317,106h-30v195h-31V0c4.501,0,9,1.8,12.001,6l61,76
	C332.3,86.499,332.901,92.5,330.5,97.599z"/>
<path style="fill:#17ACE8;" d="M178.5,157.599C175.8,162.7,170.7,166,165,166h-30v195H75V166H45c-5.7,0-10.8-3.3-13.5-8.401
	c-2.401-5.099-1.8-11.1,1.5-15.599l60-75c3.001-4.2,7.5-6,12.001-6s9,1.8,12.001,6l60,75C180.3,146.499,180.901,152.5,178.5,157.599
	z"/>
<path style="fill:#1689FC;" d="M178.5,157.599C175.8,162.7,170.7,166,165,166h-30v195h-30V61c4.501,0,9,1.8,12.001,6l60,75
	C180.3,146.499,180.901,152.5,178.5,157.599z"/>
<path style="fill:#17ACE8;" d="M480.5,157.599C477.8,162.7,472.7,166,467,166h-30v195h-60V166h-30c-5.7,0-10.8-3.3-13.5-8.401
	c-2.401-5.099-1.8-11.1,1.5-15.599l60-75c3.001-4.2,7.5-6,12.001-6s9,1.8,12.001,6l60,75C482.3,146.499,482.901,152.5,480.5,157.599
	z"/>
<path style="fill:#1689FC;" d="M480.5,157.599C477.8,162.7,472.7,166,467,166h-30v195h-30V61c4.501,0,9,1.8,12.001,6l60,75
	C482.3,146.499,482.901,152.5,480.5,157.599z"/>
<path style="fill:#E5E5E5;" d="M407,301c-7.2,0-14.7,0.899-21.899,2.399C367.099,249.099,314.5,211,256,211
	s-111.099,38.099-129.101,92.399C119.7,301.899,112.2,301,105,301C47.1,301,0,348.1,0,406s47.1,106,105,106h302
	c57.9,0,105-48.1,105-106S464.9,301,407,301z"/>
<path style="fill:#D9D9D9;" d="M512,406c0,57.9-47.1,106-105,106H256V211c58.5,0,111.099,38.099,129.101,92.399
	c7.2-1.5,14.7-2.399,21.899-2.399C464.9,301,512,348.1,512,406z"/>
<g>
</g>
<g>
</g>
<g>
</g>
<g>
</g>
<g>
</g>
<g>
</g>
<g>
</g>
<g>
</g>
<g>
</g>
<g>
</g>
<g>
</g>
<g>
</g>
<g>
</g>
<g>
</g>
<g>
</g>
</svg>
