<?xml version="1.0" encoding="iso-8859-1"?>
<!-- Generator: Adobe Illustrator 19.0.0, SVG Export Plug-In . SVG Version: 6.00 Build 0)  -->
<svg version="1.1" id="Capa_1" xmlns="http://www.w3.org/2000/svg" xmlns:xlink="http://www.w3.org/1999/xlink" x="0px" y="0px"
	 viewBox="0 0 512 512" style="enable-background:new 0 0 512 512;" xml:space="preserve">
<path style="fill:#1689FC;" d="M151,466.9v45H16c-8.401,0-16-6.601-16-15v-30c0-41.4,34.6-76,76-76c20.7,0,39.6,8.399,53.101,21.899
	C142.599,426.3,151,446.2,151,466.9z"/>
<path style="fill:#136EF1;" d="M151,466.9v45H76v-121c20.7,0,39.6,8.399,53.101,21.899C142.599,426.3,151,446.2,151,466.9z"/>
<path style="fill:#1689FC;" d="M316,466.9v30c0,8.399-6.599,15-15,15H121c-8.401,0-15-6.601-15-15v-30c0-57.9,47.1-106,105-106
	c28.801,0,55.201,11.7,74.099,30.899C304.3,410.699,316,438.099,316,466.9z"/>
<g>
	<path style="fill:#17ACE8;" d="M76,330.9c-24.901,0-45,20.099-45,45c0,24.899,20.099,45,45,45s45-20.101,45-45
		C121,351,100.901,330.9,76,330.9z"/>
	<path style="fill:#17ACE8;" d="M211,270.9c-32.999,0-60,26.999-60,60c0,32.999,27.001,60,60,60s60-27.001,60-60
		C271,297.899,243.999,270.9,211,270.9z"/>
</g>
<path style="fill:#FCBF29;" d="M76,270.9c-3.838,0-7.676-1.465-10.605-4.395c-5.859-5.859-5.859-15.352,0-21.211l120-120
	c3.179-3.179,7.588-4.644,12.085-4.321c4.468,0.439,8.511,2.871,11.001,6.606l49.849,74.78l62.109-62.109
	c5.859-5.859,15.352-5.859,21.211,0s5.859,15.352,0,21.211l-75.044,75.044c-3.164,3.179-7.456,4.79-12.085,4.321
	c-4.468-0.439-8.511-2.871-11.001-6.606l-49.849-74.78L86.605,266.506C83.676,269.435,79.838,270.9,76,270.9z"/>
<path style="fill:#1689FC;" d="M121,375.9c0,24.899-20.099,45-45,45v-90C100.901,330.9,121,351,121,375.9z"/>
<path style="fill:#136EF1;" d="M316,466.9v30c0,8.399-6.599,15-15,15h-90v-151c28.801,0,55.201,11.7,74.099,30.899
	C304.3,410.699,316,438.099,316,466.9z"/>
<g>
	<path style="fill:#1689FC;" d="M271,330.9c0,32.999-27.001,60-60,60v-120C243.999,270.9,271,297.899,271,330.9z"/>
	<path style="fill:#1689FC;" d="M376,330.9c-74.399,0-135,61.599-135,136v30c0,8.399,6.599,15,15,15h241c8.401,0,15-6.601,15-15v-30
		C512,392.499,450.399,330.9,376,330.9z"/>
</g>
<path style="fill:#136EF1;" d="M512,466.9v30c0,8.399-6.599,15-15,15H376v-181C450.399,330.9,512,392.499,512,466.9z"/>
<path style="fill:#17ACE8;" d="M376,210.9c-41.4,0-75,33.6-75,75s33.6,75,75,75s75-33.6,75-75S417.4,210.9,376,210.9z"/>
<path style="fill:#1689FC;" d="M451,285.9c0,41.4-33.6,75-75,75v-150C417.4,210.9,451,244.5,451,285.9z"/>
<path style="fill:#FEDB41;" d="M465.099,65.699c-1.8-5.7-6.599-9.598-12.299-10.199l-43.801-6.601L389.5,7.9
	c-2.7-5.101-8.1-7.8-13.5-7.8s-10.8,2.699-13.5,7.8l-19.499,40.999L299.2,55.5c-5.7,0.601-10.499,4.499-12.299,10.199
	c-1.802,5.402-0.3,11.4,3.898,15.3l31.8,30.901l-7.5,43.499c-0.899,5.7,1.201,11.4,6,14.702c4.501,3.6,10.801,3.898,15.601,1.199
	l39.3-20.7l39.3,20.7c4.799,2.699,11.1,2.401,15.601-1.199c4.799-3.301,6.899-9.001,6-14.702l-7.5-43.499l31.8-30.9
	C465.399,77.099,466.901,71.101,465.099,65.699z"/>
<path style="fill:#FCBF29;" d="M461.201,81l-31.8,30.901l7.5,43.499c0.899,5.7-1.201,11.4-6,14.702
	c-4.501,3.6-10.801,3.898-15.601,1.199L376,150.6V0.1c5.4,0,10.8,2.699,13.5,7.8l19.499,40.999L452.8,55.5
	c5.7,0.601,10.499,4.499,12.299,10.199C466.901,71.101,465.399,77.099,461.201,81z"/>
<g>
</g>
<g>
</g>
<g>
</g>
<g>
</g>
<g>
</g>
<g>
</g>
<g>
</g>
<g>
</g>
<g>
</g>
<g>
</g>
<g>
</g>
<g>
</g>
<g>
</g>
<g>
</g>
<g>
</g>
</svg>
