<?xml version="1.0" encoding="iso-8859-1"?>
<!-- Generator: Adobe Illustrator 19.0.0, SVG Export Plug-In . SVG Version: 6.00 Build 0)  -->
<svg version="1.1" id="Capa_1" xmlns="http://www.w3.org/2000/svg" xmlns:xlink="http://www.w3.org/1999/xlink" x="0px" y="0px"
	 viewBox="0 0 512 512" style="enable-background:new 0 0 512 512;" xml:space="preserve">
<path style="fill:#19DEC1;" d="M151.021,109.847l-20.703,21.002l-0.3,0.3l-21.302,21.003
	c-18.003-18.001-31.804-31.804-49.808-49.806c-9.001,9.001-15.603,15.601-24.603,24.603c-9.001,9.001-24.603,3.3-25.502-9.601
	C6.102,82.242,3.232,54.24,0.532,18.835c-1.5-5.401,0.3-10.802,3.901-14.403s9.001-5.401,14.702-3.901
	c35.103,3,62.577,6.102,97.681,9.101c12.603,1.199,18.302,16.502,9.301,25.504l-24.902,24.902
	C119.217,78.043,133.019,91.844,151.021,109.847z"/>
<path style="fill:#17CEB4;" d="M4.432,4.431l125.886,126.417l-0.3,0.3l-21.302,21.003c-18.003-18.001-31.804-31.804-49.808-49.806
	c-9.001,9.001-15.603,15.601-24.603,24.603c-9.001,9.001-24.603,3.3-25.502-9.601C6.101,82.241,3.231,54.239,0.531,18.834
	C-0.969,13.434,0.831,8.032,4.432,4.431z"/>
<path style="fill:#19DEC1;" d="M511.468,18.835c-2.699,35.405-5.8,63.407-8.501,98.513c-0.899,12.902-16.502,18.602-25.502,9.601
	c-8.7-9.002-15.603-15.603-24.303-24.603c-18.302,18.001-32.104,31.804-50.106,49.806l-21.003-21.003l-0.3-0.599l-20.703-20.703
	c18.001-18.003,31.504-31.804,49.508-49.808c-9.002-9.001-15.603-15.901-24.603-24.902c-9.001-9.002-3.301-24.305,9.301-25.504
	c35.104-2.999,62.808-6.1,97.912-9.102c5.401-1.5,10.801,0.3,14.401,3.901S512.969,13.434,511.468,18.835z"/>
<path style="fill:#17CEB4;" d="M511.468,18.835c-2.699,35.405-5.8,63.407-8.501,98.513c-0.899,12.902-16.502,18.602-25.502,9.601
	c-8.7-9.002-15.603-15.603-24.303-24.603c-18.302,18.001-32.104,31.804-50.106,49.806l-21.003-21.003l-0.3-0.599L507.568,4.431
	C511.168,8.032,512.969,13.434,511.468,18.835z"/>
<path style="fill:#19DEC1;" d="M126.117,477.994c9.001,9.002,3.301,24.603-9.301,25.504c-35.104,2.999-62.578,4.971-97.682,7.971
	c-5.701,1.5-11.101-0.3-14.702-3.901c-3.6-3.6-5.401-9.001-3.901-14.702c2.699-35.104,5.57-61.679,8.271-97.084
	c0.899-12.601,16.502-18.302,25.502-9.301c9.001,8.702,15.603,15.603,24.603,24.303c18.003-18.001,31.804-31.804,49.808-49.806
	c7.799,7.801,14.702,14.702,21.602,21.602c6.602,6.602,13.202,13.502,20.703,21.003l-49.806,49.806
	C110.216,462.394,117.116,468.994,126.117,477.994z"/>
<path style="fill:#17CEB4;" d="M151.021,403.585l-49.806,49.806c9.001,9.002,15.901,15.603,24.902,24.603
	c9.001,9.002,3.301,24.603-9.301,25.504c-35.104,2.999-62.578,4.971-97.682,7.971c-5.701,1.5-11.101-0.3-14.702-3.901
	l125.885-124.987C136.919,389.184,143.52,396.084,151.021,403.585z"/>
<path style="fill:#19DEC1;" d="M511.468,492.867c1.501,5.701-0.3,11.101-3.901,14.702c-3.6,3.6-9.001,5.401-14.401,3.901
	c-35.104-2.999-62.808-4.971-97.912-7.971c-12.603-0.901-18.302-16.502-9.301-25.504l24.603-24.603
	c-18.003-18.001-31.505-31.804-49.508-49.806l20.703-20.703l0.3-0.601l21.003-21.302c18.001,18.001,31.804,31.804,50.106,49.806
	c8.7-8.7,15.603-15.601,24.303-24.303c9.001-9.001,24.603-3.3,25.502,9.301C505.668,431.189,508.769,457.763,511.468,492.867z"/>
<path style="fill:#17CEB4;" d="M507.568,507.569c-3.6,3.6-9.001,5.401-14.401,3.901c-35.104-2.999-62.808-4.971-97.912-7.971
	c-12.603-0.901-18.302-16.502-9.301-25.504l24.603-24.603c-18.003-18.001-31.505-31.804-49.508-49.806l20.703-20.703
	L507.568,507.569z"/>
<path style="fill:#FEDB41;" d="M256.035,60.941c-107.415,0-195.026,87.611-195.026,195.026
	c0,107.413,87.611,195.026,195.026,195.026s195.026-87.613,195.026-195.026C451.061,148.551,363.45,60.941,256.035,60.941z"/>
<path style="fill:#FCBF29;" d="M451.061,255.966c0,107.413-87.611,195.026-195.026,195.026V60.941
	C363.45,60.941,451.061,148.551,451.061,255.966z"/>
<path style="fill:#1689FC;" d="M256.035,210.961c-57.908,0-105.014,47.106-105.014,105.014v30.004c0,8.402,6.6,15.002,15.002,15.002
	h180.024c8.402,0,15.002-6.6,15.002-15.002v-30.004C361.049,258.067,313.942,210.961,256.035,210.961z"/>
<path style="fill:#136EF1;" d="M361.049,315.974v30.004c0,8.402-6.6,15.002-15.002,15.002h-90.012v-150.02
	C313.942,210.961,361.049,258.067,361.049,315.974z"/>
<path style="fill:#17ACE8;" d="M256.035,120.949c-33.003,0-60.008,27.005-60.008,60.008s27.005,60.008,60.008,60.008
	s60.008-27.005,60.008-60.008S289.039,120.949,256.035,120.949z"/>
<path style="fill:#1689FC;" d="M316.043,180.957c0,33.003-27.005,60.008-60.008,60.008V120.949
	C289.039,120.949,316.043,147.952,316.043,180.957z"/>
<g>
</g>
<g>
</g>
<g>
</g>
<g>
</g>
<g>
</g>
<g>
</g>
<g>
</g>
<g>
</g>
<g>
</g>
<g>
</g>
<g>
</g>
<g>
</g>
<g>
</g>
<g>
</g>
<g>
</g>
</svg>
