<?xml version="1.0" encoding="iso-8859-1"?>
<!-- Generator: Adobe Illustrator 19.0.0, SVG Export Plug-In . SVG Version: 6.00 Build 0)  -->
<svg version="1.1" id="Capa_1" xmlns="http://www.w3.org/2000/svg" xmlns:xlink="http://www.w3.org/1999/xlink" x="0px" y="0px"
	 viewBox="0 0 512 512" style="enable-background:new 0 0 512 512;" xml:space="preserve">
<path style="fill:#FD3018;" d="M497,391H346c-8.291,0-15,6.709-15,15v91c0,8.291,6.709,15,15,15h151c8.291,0,15-6.709,15-15v-91
	C512,397.709,505.291,391,497,391z"/>
<path style="fill:#19DEC1;" d="M166,331H15c-8.291,0-15,6.709-15,15v151c0,8.291,6.709,15,15,15h151c8.291,0,15-6.709,15-15V346
	C181,337.709,174.291,331,166,331z"/>
<path style="fill:#FEDB41;" d="M346,270H166c-8.401,0-15,6.599-15,15v227h210V285C361,276.599,354.401,270,346,270z"/>
<path style="fill:#FCBF29;" d="M361,285v227H256V270h90C354.401,270,361,276.599,361,285z"/>
<path style="fill:#1689FC;" d="M256,90c-57.9,0-105,47.1-105,105v30c0,8.401,6.599,15,15,15h180c8.401,0,15-6.599,15-15v-30
	C361,137.1,313.9,90,256,90z"/>
<path style="fill:#136EF1;" d="M361,195v30c0,8.401-6.599,15-15,15h-90V90C313.9,90,361,137.1,361,195z"/>
<path style="fill:#17ACE8;" d="M256,0c-32.999,0-60,27.001-60,60s27.001,60,60,60s60-27.001,60-60S288.999,0,256,0z"/>
<path style="fill:#1689FC;" d="M316,60c0,32.999-27.001,60-60,60V0C288.999,0,316,27.001,316,60z"/>
<path style="fill:#787780;" d="M301,436c0,8.399-6.599,15-15,15h-60c-8.401,0-15-6.601-15-15c0-8.401,6.599-15,15-15h15v-60h-15
	c-8.401,0-15-6.601-15-15c0-8.401,6.599-15,15-15h60c8.401,0,15,6.599,15,15c0,8.399-6.599,15-15,15h-15v60h15
	C294.401,421,301,427.599,301,436z"/>
<path style="fill:#57555C;" d="M301,436c0,8.399-6.599,15-15,15h-30V331h30c8.401,0,15,6.599,15,15c0,8.399-6.599,15-15,15h-15v60
	h15C294.401,421,301,427.599,301,436z"/>
<g>
</g>
<g>
</g>
<g>
</g>
<g>
</g>
<g>
</g>
<g>
</g>
<g>
</g>
<g>
</g>
<g>
</g>
<g>
</g>
<g>
</g>
<g>
</g>
<g>
</g>
<g>
</g>
<g>
</g>
</svg>
