<?xml version="1.0" encoding="iso-8859-1"?>
<!-- Generator: Adobe Illustrator 19.0.0, SVG Export Plug-In . SVG Version: 6.00 Build 0)  -->
<svg version="1.1" id="Capa_1" xmlns="http://www.w3.org/2000/svg" xmlns:xlink="http://www.w3.org/1999/xlink" x="0px" y="0px"
	 viewBox="0 0 512 512" style="enable-background:new 0 0 512 512;" xml:space="preserve">
<path style="fill:#1689FC;" d="M406,91H106c-24.901,0-45,20.099-45,45v331c0,24.899,20.099,45,45,45h300c24.901,0,45-20.101,45-45
	V136C451,111.099,430.901,91,406,91z"/>
<path style="fill:#136EF1;" d="M451,136v331c0,24.899-20.099,45-45,45H256V91h150C430.901,91,451,111.099,451,136z"/>
<path style="fill:#E5E5E5;" d="M406,121H106c-8.401,0-15,6.599-15,15v331c0,8.399,6.599,15,15,15h300c8.401,0,15-6.601,15-15V136
	C421,127.599,414.401,121,406,121z"/>
<path style="fill:#D9D9D9;" d="M421,136v331c0,8.399-6.599,15-15,15H256V121h150C414.401,121,421,127.599,421,136z"/>
<path style="fill:#787780;" d="M376,91v30H136V91c0-16.5,13.5-30,30-30h30l9.3-38.2C208.599,9.3,220.6,0,234.401,0h43.198
	C291.4,0,303.401,9.3,306.7,22.8L316,61h30C362.5,61,376,74.5,376,91z"/>
<path style="fill:#57555C;" d="M376,91v30H256V0h21.599C291.4,0,303.401,9.3,306.7,22.8L316,61h30C362.5,61,376,74.5,376,91z"/>
<g>
	<path style="fill:#19DEC1;" d="M166,271c-3.838,0-7.676-1.465-10.605-4.395l-30-30c-5.859-5.859-5.859-15.352,0-21.211
		c5.859-5.859,15.352-5.859,21.211,0L166,234.789l49.395-49.395c5.859-5.859,15.352-5.859,21.211,0s5.859,15.352,0,21.211l-60,60
		C173.676,269.535,169.838,271,166,271z"/>
	<path style="fill:#19DEC1;" d="M166,361c-3.838,0-7.676-1.465-10.605-4.395l-30-30c-5.859-5.859-5.859-15.352,0-21.211
		c5.859-5.859,15.352-5.859,21.211,0L166,324.789l49.395-49.395c5.859-5.859,15.352-5.859,21.211,0s5.859,15.352,0,21.211l-60,60
		C173.676,359.535,169.838,361,166,361z"/>
	<path style="fill:#19DEC1;" d="M166,451c-3.838,0-7.676-1.465-10.605-4.395l-30-30c-5.859-5.859-5.859-15.352,0-21.211
		c5.859-5.859,15.352-5.859,21.211,0L166,414.789l49.395-49.395c5.859-5.859,15.352-5.859,21.211,0s5.859,15.352,0,21.211l-60,60
		C173.676,449.535,169.838,451,166,451z"/>
</g>
<g>
	<path style="fill:#AEADB3;" d="M376,241h-90c-8.291,0-15-6.709-15-15s6.709-15,15-15h90c8.291,0,15,6.709,15,15
		S384.291,241,376,241z"/>
	<path style="fill:#AEADB3;" d="M376,331h-90c-8.291,0-15-6.709-15-15s6.709-15,15-15h90c8.291,0,15,6.709,15,15
		S384.291,331,376,331z"/>
	<path style="fill:#AEADB3;" d="M376,421h-90c-8.291,0-15-6.709-15-15s6.709-15,15-15h90c8.291,0,15,6.709,15,15
		S384.291,421,376,421z"/>
</g>
<path style="fill:#E5E5E5;" d="M271,76c0,8.399-6.599,15-15,15s-15-6.601-15-15c0-8.401,6.599-15,15-15S271,67.599,271,76z"/>
<path style="fill:#D9D9D9;" d="M271,76c0,8.399-6.599,15-15,15V61C264.401,61,271,67.599,271,76z"/>
<g>
</g>
<g>
</g>
<g>
</g>
<g>
</g>
<g>
</g>
<g>
</g>
<g>
</g>
<g>
</g>
<g>
</g>
<g>
</g>
<g>
</g>
<g>
</g>
<g>
</g>
<g>
</g>
<g>
</g>
</svg>
