<?xml version="1.0" encoding="iso-8859-1"?>
<!-- Generator: Adobe Illustrator 19.0.0, SVG Export Plug-In . SVG Version: 6.00 Build 0)  -->
<svg version="1.1" id="Capa_1" xmlns="http://www.w3.org/2000/svg" xmlns:xlink="http://www.w3.org/1999/xlink" x="0px" y="0px"
	 viewBox="0 0 512 512" style="enable-background:new 0 0 512 512;" xml:space="preserve">
<path style="fill:#787780;" d="M317.729,345.987c0,8.398-6.9,14.998-14.998,14.998H150.353c-3.899,0-7.799-1.5-10.499-4.5
	l-126.58-126.58c-17.698-17.398-17.698-45.894,0-63.591l42.293-42.295c17.097-17.097,46.793-17.097,63.891,0
	c12.599,12.597,22.197,22.197,29.996,29.996c37.794,37.794,29.696,29.696,91.187,91.187
	C285.033,257.8,317.729,297.993,317.729,345.987z"/>
<path style="fill:#57555C;" d="M317.729,345.987c0,8.398-6.9,14.998-14.998,14.998H150.353c-3.899,0-7.799-1.5-10.499-4.5
	L45.069,261.7l63.591-63.591l40.794-44.094c37.794,37.794,29.696,29.696,91.187,91.187
	C285.033,257.8,317.729,297.993,317.729,345.987z"/>
<path style="fill:#FEDB41;" d="M225.342,145.016l-63.591-63.591c-5.999-5.699-15.298-5.699-21.298,0l-31.795,31.795
	C97.26,124.619,91.26,139.617,91.26,155.813c0,15.899,5.999,30.896,17.398,42.295s26.396,17.696,42.593,17.696
	c15.899,0,30.896-6.298,42.295-17.696l31.795-31.795C231.341,160.315,231.341,151.016,225.342,145.016z"/>
<path style="fill:#FCBF29;" d="M225.342,166.314l-31.795,31.795c-11.398,11.398-26.396,17.696-42.295,17.696
	c-16.197,0-31.194-6.298-42.593-17.696l81.589-88.187l35.094,35.094C231.341,151.016,231.341,160.315,225.342,166.314z"/>
<path style="fill:#17ACE8;" d="M165.051,420.976H15.074c-8.4,0-14.998,6.598-14.998,14.998v60.991
	c0,8.398,6.598,14.998,14.998,14.998h149.978c8.4,0,14.998-6.6,14.998-14.998v-60.991
	C180.049,427.574,173.45,420.976,165.051,420.976z"/>
<path style="fill:#1689FC;" d="M180.049,435.974v60.991c0,8.398-6.598,14.998-14.998,14.998H75.065v-90.986h89.987
	C173.45,420.976,180.049,427.574,180.049,435.974z"/>
<path style="fill:#19DEC1;" d="M345.025,360.985H150.053v150.978h194.971c8.4,0,14.998-6.6,14.998-14.998V375.983
	C360.022,367.583,353.423,360.985,345.025,360.985z"/>
<path style="fill:#57555C;" d="M396.916,0.038H184.847c-4.198,0-7.797,1.5-10.798,4.498c-19.796,19.798-34.794,35.796-54.592,55.893
	c-5.998,5.699-5.998,15.298,0,20.997l50.393,50.692l2.401,2.401l53.093,53.091c5.999,5.699,15.298,5.699,21.296,0
	c58.191-58.191,102.586-103.885,160.777-162.076C416.714,16.235,410.114,0.038,396.916,0.038z"/>
<path style="fill:#17CEB4;" d="M360.022,375.983v120.982c0,8.398-6.598,14.998-14.998,14.998H240.04V360.985h104.984
	C353.423,360.985,360.022,367.583,360.022,375.983z"/>
<path style="fill:#17ACE8;" d="M497.002,211.007H345.025c-8.4,0-14.998,6.598-14.998,14.998v285.958h166.975
	c8.4,0,14.998-6.6,14.998-14.998v-270.96C512,217.605,505.401,211.007,497.002,211.007z"/>
<path style="fill:#1689FC;" d="M512,226.005v270.96c0,8.398-6.598,14.998-14.998,14.998h-75.989V211.007h75.989
	C505.401,211.007,512,217.605,512,226.005z"/>
<path style="fill:#3C3A41;" d="M407.415,25.534C349.224,83.725,304.829,129.418,246.638,187.61c-5.998,5.699-15.296,5.699-21.296,0
	l-53.093-53.091l-2.401-2.401L290.732,0.037h106.183C410.114,0.038,416.714,16.235,407.415,25.534z"/>
<g>
</g>
<g>
</g>
<g>
</g>
<g>
</g>
<g>
</g>
<g>
</g>
<g>
</g>
<g>
</g>
<g>
</g>
<g>
</g>
<g>
</g>
<g>
</g>
<g>
</g>
<g>
</g>
<g>
</g>
</svg>
