<?xml version="1.0" encoding="iso-8859-1"?>
<!-- Generator: Adobe Illustrator 19.0.0, SVG Export Plug-In . SVG Version: 6.00 Build 0)  -->
<svg version="1.1" id="Capa_1" xmlns="http://www.w3.org/2000/svg" xmlns:xlink="http://www.w3.org/1999/xlink" x="0px" y="0px"
	 viewBox="0 0 512.001 512.001" style="enable-background:new 0 0 512.001 512.001;" xml:space="preserve">
<rect x="89.998" y="421.001" style="fill:#57555C;" width="209.995" height="29.999"/>
<rect x="194.996" y="421.001" style="fill:#3C3A41;" width="104.998" height="29.999"/>
<path style="fill:#57555C;" d="M354.953,464.357l-86.039-129.081l-53.539,27.868l89.657,135.493
	c9.186,13.768,27.835,17.51,41.601,8.32C360.34,497.828,364.194,478.234,354.953,464.357z"/>
<path style="fill:#787780;" d="M115.902,343.061L35.038,464.357c-9.241,13.878-5.387,33.471,8.32,42.601
	c13.892,9.234,32.517,5.33,41.601-8.32l90.483-136.731L115.902,343.061z"/>
<path style="fill:#FD4E26;" d="M194.996,0.007C87.597,0.007,0,88.605,0,196.003C0,303.4,87.597,390.999,194.996,390.999
	S389.992,303.4,389.992,196.003C389.992,88.605,302.395,0.007,194.996,0.007z"/>
<path style="fill:#FD3018;" d="M389.992,196.003c0,107.397-87.597,194.996-194.996,194.996S0,303.4,0,196.003L389.992,196.003
	L389.992,196.003z"/>
<path style="fill:#E5E5E5;" d="M194.996,31.007c-90.899,0-164.996,74.097-164.996,164.996C29.999,286.9,104.097,361,194.996,361
	S359.992,286.9,359.992,196.003C359.992,105.104,285.895,31.007,194.996,31.007z"/>
<path style="fill:#D9D9D9;" d="M359.992,196.003C359.992,286.9,285.895,361,194.996,361S29.999,286.9,29.999,196.003
	L359.992,196.003L359.992,196.003z"/>
<path style="fill:#FD4E26;" d="M194.996,61.006c-74.397,0-134.997,60.598-134.997,134.997c0,74.397,60.6,134.997,134.997,134.997
	s134.997-60.6,134.997-134.997C329.993,121.603,269.393,61.006,194.996,61.006z"/>
<path style="fill:#FD3018;" d="M329.993,196.003c0,74.397-60.6,134.997-134.997,134.997s-134.997-60.6-134.997-134.997
	L329.993,196.003L329.993,196.003z"/>
<path style="fill:#E5E5E5;" d="M194.996,91.006c-57.899,0-104.998,47.099-104.998,104.998s47.099,104.998,104.998,104.998
	s104.998-47.099,104.998-104.998S252.895,91.006,194.996,91.006z"/>
<path style="fill:#FD4E26;" d="M194.996,121.005c-41.399,0-74.998,33.599-74.998,74.998s33.599,74.998,74.998,74.998
	s74.998-33.599,74.998-74.998S236.395,121.005,194.996,121.005z"/>
<path style="fill:#D9D9D9;" d="M299.994,196.003c0,57.899-47.099,104.998-104.998,104.998S89.998,253.902,89.998,196.003
	L299.994,196.003L299.994,196.003z"/>
<path style="fill:#FD3018;" d="M269.994,196.003c0,41.399-33.599,74.998-74.998,74.998s-74.998-33.599-74.998-74.998
	L269.994,196.003L269.994,196.003z"/>
<path style="fill:#E5E5E5;" d="M194.996,151.004c-24.9,0-44.999,20.099-44.999,44.999c0,24.898,20.099,44.999,44.999,44.999
	s44.999-20.101,44.999-44.999C239.995,171.103,219.896,151.004,194.996,151.004z"/>
<path style="fill:#D9D9D9;" d="M239.995,196.003c0,24.898-20.099,44.999-44.999,44.999s-44.999-20.101-44.999-44.999H239.995z"/>
<path style="fill:#787780;" d="M389.992,196.003c0,8.399-6.599,15-15,15H194.996c-8.401,0-15-6.601-15-15c0-8.401,6.599-15,15-15
	h179.996C383.393,181.004,389.992,187.602,389.992,196.003z"/>
<path style="fill:#57555C;" d="M389.992,196.003c0,8.399-6.599,15-15,15H194.996c-8.401,0-15-6.601-15-15H389.992z"/>
<path style="fill:#19DEC1;" d="M488.291,196.003l19.199-19.501c4.501-4.2,5.7-10.499,3.301-16.199c-2.401-5.7-7.8-9.3-13.801-9.3
	h-91.998c-3.9,0-7.8,1.5-10.499,4.499l-29.999,29.999c-3.001,2.701-4.501,6.601-4.501,10.501c0,3.9,1.5,7.8,4.501,10.499
	l29.999,29.999c2.699,3.001,6.599,4.501,10.499,4.501h91.998c6,0,11.4-3.6,13.801-9.3c2.399-5.7,1.199-12.001-3.301-16.201
	L488.291,196.003z"/>
<path style="fill:#17CEB4;" d="M510.79,231.702c-2.401,5.7-7.8,9.3-13.801,9.3h-91.998c-3.9,0-7.8-1.5-10.499-4.501l-29.999-29.999
	c-3.001-2.699-4.501-6.599-4.501-10.499h128.298l19.199,19.499C511.989,219.702,513.188,226.003,510.79,231.702z"/>
<g>
</g>
<g>
</g>
<g>
</g>
<g>
</g>
<g>
</g>
<g>
</g>
<g>
</g>
<g>
</g>
<g>
</g>
<g>
</g>
<g>
</g>
<g>
</g>
<g>
</g>
<g>
</g>
<g>
</g>
</svg>
