<?xml version="1.0" encoding="iso-8859-1"?>
<!-- Generator: Adobe Illustrator 19.0.0, SVG Export Plug-In . SVG Version: 6.00 Build 0)  -->
<svg version="1.1" id="Capa_1" xmlns="http://www.w3.org/2000/svg" xmlns:xlink="http://www.w3.org/1999/xlink" x="0px" y="0px"
	 viewBox="0 0 512 512" style="enable-background:new 0 0 512 512;" xml:space="preserve">
<path style="fill:#787780;" d="M391,76v60c0,8.401-6.599,15-15,15s-15-6.599-15-15V76c0-8.401-6.599-15-15-15H166
	c-8.401,0-15,6.599-15,15v60c0,8.401-6.599,15-15,15s-15-6.599-15-15V76c0-24.901,20.099-45,45-45h180C370.901,31,391,51.099,391,76
	z"/>
<g>
	<path style="fill:#57555C;" d="M391,76v60c0,8.401-6.599,15-15,15s-15-6.599-15-15V76c0-8.401-6.599-15-15-15h-90V31h90
		C370.901,31,391,51.099,391,76z"/>
	<path style="fill:#57555C;" d="M482,281.499V436c0,24.901-20.099,45-45,45H75c-24.901,0-45-20.099-45-45V281.499
		c0-8.399,6.599-15,15-15h422C475.401,266.499,482,273.1,482,281.499z"/>
</g>
<path style="fill:#3C3A41;" d="M482,281.499V436c0,24.901-20.099,45-45,45H256V266.499h211C475.401,266.499,482,273.1,482,281.499z"
	/>
<path style="fill:#FEA832;" d="M286,301h-60c-8.401,0-15,6.599-15,15v30c0,24.901,20.099,45,45,45s45-20.099,45-45v-30
	C301,307.599,294.401,301,286,301z"/>
<path style="fill:#FE9923;" d="M301,316v30c0,24.901-20.099,45-45,45v-90h30C294.401,301,301,307.599,301,316z"/>
<path style="fill:#787780;" d="M467,121H45c-24.901,0-45,20.099-45,45v83.699C0,269.2,12.299,286.3,30.3,292.301
	C88.5,312.1,150.099,323.8,211,327.7l45-28.5l45,28.5c60.901-3.9,122.5-15.601,180.7-35.4c18.001-6,30.3-23.101,30.3-42.601V166
	C512,141.099,491.901,121,467,121z"/>
<path style="fill:#57555C;" d="M467,121H256v178.2l45,28.5c60.901-3.9,122.5-15.601,180.7-35.4c18.001-6,30.3-23.101,30.3-42.601
	V166C512,141.099,491.901,121,467,121z"/>
<path style="fill:#19DEC1;" d="M301,121v206.7c-15,0.899-30,1.5-45,1.5s-30-0.601-45-1.5V121H301z"/>
<path style="fill:#17CEB4;" d="M301,121v206.7c-15,0.899-30,1.5-45,1.5V121H301z"/>
<g>
</g>
<g>
</g>
<g>
</g>
<g>
</g>
<g>
</g>
<g>
</g>
<g>
</g>
<g>
</g>
<g>
</g>
<g>
</g>
<g>
</g>
<g>
</g>
<g>
</g>
<g>
</g>
<g>
</g>
</svg>
