<?xml version="1.0" encoding="iso-8859-1"?>
<!-- Generator: Adobe Illustrator 19.0.0, SVG Export Plug-In . SVG Version: 6.00 Build 0)  -->
<svg version="1.1" id="Capa_1" xmlns="http://www.w3.org/2000/svg" xmlns:xlink="http://www.w3.org/1999/xlink" x="0px" y="0px"
	 viewBox="0 0 512 512" style="enable-background:new 0 0 512 512;" xml:space="preserve">
<path style="fill:#E5E5E5;" d="M382.899,91.3C363.999,37.599,313.599,0,256,0S148.001,37.599,129.101,91.3
	C74.5,94.9,31,140.501,31,196c0,57.9,47.1,105,105,105h240c57.9,0,105-47.1,105-105C481,140.501,437.5,94.9,382.899,91.3z"/>
<path style="fill:#D9D9D9;" d="M481,196c0,57.9-47.1,105-105,105H256V0c57.599,0,107.999,37.599,126.899,91.3
	C437.5,94.9,481,140.501,481,196z"/>
<g>
	<path style="fill:#787780;" d="M331,226c0,8.401-6.599,15-15,15H196c-8.401,0-15-6.599-15-15s6.599-15,15-15h120
		C324.401,211,331,217.599,331,226z"/>
	<path style="fill:#787780;" d="M331,286c0,8.401-6.599,15-15,15H196c-8.401,0-15-6.599-15-15s6.599-15,15-15h120
		C324.401,271,331,277.599,331,286z"/>
	<path style="fill:#787780;" d="M331,406c0,8.401-6.599,15-15,15H196c-8.401,0-15-6.599-15-15s6.599-15,15-15h120
		C324.401,391,331,397.599,331,406z"/>
	<path style="fill:#787780;" d="M331,467c0,8.401-6.599,15-15,15H196c-8.401,0-15-6.599-15-15s6.599-15,15-15h120
		C324.401,452,331,458.599,331,467z"/>
	<path style="fill:#787780;" d="M331,346c0,8.401-6.599,15-15,15H196c-8.401,0-15-6.599-15-15s6.599-15,15-15h120
		C324.401,331,331,337.599,331,346z"/>
</g>
<g>
	<path style="fill:#57555C;" d="M331,467c0,8.401-6.599,15-15,15h-60v-30h60C324.401,452,331,458.599,331,467z"/>
	<path style="fill:#57555C;" d="M331,406c0,8.401-6.599,15-15,15h-60v-30h60C324.401,391,331,397.599,331,406z"/>
	<path style="fill:#57555C;" d="M331,346c0,8.401-6.599,15-15,15h-60v-30h60C324.401,331,331,337.599,331,346z"/>
	<path style="fill:#57555C;" d="M331,286c0,8.401-6.599,15-15,15h-60v-30h60C324.401,271,331,277.599,331,286z"/>
	<path style="fill:#57555C;" d="M316,241h-60v-30h60c8.401,0,15,6.599,15,15S324.401,241,316,241z"/>
</g>
<path style="fill:#787780;" d="M196,512c-8.291,0-15-6.709-15-15V196c0-8.291,6.709-15,15-15s15,6.709,15,15v301
	C211,505.291,204.291,512,196,512z"/>
<path style="fill:#57555C;" d="M316,512c-8.291,0-15-6.709-15-15V196c0-8.291,6.709-15,15-15s15,6.709,15,15v301
	C331,505.291,324.291,512,316,512z"/>
<g>
</g>
<g>
</g>
<g>
</g>
<g>
</g>
<g>
</g>
<g>
</g>
<g>
</g>
<g>
</g>
<g>
</g>
<g>
</g>
<g>
</g>
<g>
</g>
<g>
</g>
<g>
</g>
<g>
</g>
</svg>
